<svg width="41" height="31" viewBox="0 0 41 31" fill="none" xmlns="http://www.w3.org/2000/svg">
<path d="M35.2672 17.5157C33.8452 17.5237 32.6138 17.8654 31.5811 18.3742C31.1997 17.6191 30.8184 16.9593 30.7549 16.4666C30.6834 15.8942 30.5961 15.5444 30.6834 14.8609C30.7708 14.1772 31.168 13.2075 31.168 13.128C31.1599 13.0565 31.0805 12.7067 30.2623 12.6988C29.4442 12.6908 28.737 12.8578 28.6576 13.0724C28.5782 13.287 28.4193 13.7798 28.316 14.2885C28.173 15.0357 26.6795 17.6826 25.8295 19.0736C25.5514 18.5331 25.3131 18.0562 25.2653 17.6746C25.1939 17.1024 25.1065 16.7525 25.1939 16.069C25.2813 15.3854 25.6785 14.4157 25.6785 14.3362C25.6706 14.2647 25.5911 13.9149 24.773 13.907C23.9546 13.899 23.2477 14.066 23.1682 14.2806C23.0888 14.4952 23.0014 15.0039 22.8266 15.4967C22.6597 15.9896 20.6737 20.409 20.1573 21.5616C19.8951 22.1498 19.6648 22.6188 19.4979 22.9367C19.3311 23.2547 19.49 22.9606 19.4741 22.9924C19.3311 23.2626 19.2517 23.4136 19.2517 23.4136V23.4217C19.1405 23.6204 19.0213 23.8111 18.9656 23.8111C18.9259 23.8111 18.8464 23.2785 18.9815 22.5473C19.2754 21.0131 19.9904 18.6207 19.9825 18.5332C19.9825 18.4935 20.1175 18.0721 19.5217 17.8576C18.9418 17.643 18.7353 18.0007 18.6876 18.0007C18.6399 18.0007 18.6002 18.1278 18.6002 18.1278C18.6002 18.1278 19.2436 15.4333 17.3688 15.4333C16.1931 15.4333 14.5725 16.713 13.7701 17.8815C13.2617 18.1597 12.1813 18.7478 11.0373 19.3759C10.6004 19.6143 10.1475 19.8687 9.71856 20.0992L9.63125 20.0036C7.35921 17.5793 3.15673 15.8624 3.33151 12.6034C3.39506 11.4191 3.80816 8.29521 11.4029 4.51163C17.6232 1.41164 22.6042 2.26215 23.47 4.15394C24.7014 6.8565 20.8087 11.8801 14.3422 12.6034C11.8795 12.8816 10.5846 11.9278 10.2589 11.5701C9.91732 11.1965 9.86966 11.1806 9.74255 11.2521C9.536 11.3634 9.66311 11.6973 9.74255 11.896C9.93321 12.3967 10.7276 13.287 12.0781 13.7321C13.2617 14.1216 16.1535 14.3362 19.649 12.9849C23.5654 11.4667 26.624 7.25393 25.7263 3.73266C24.8127 0.147798 18.8704 -1.02861 13.2539 0.966513C9.9093 2.15882 6.28675 4.01881 3.68105 6.45906C0.582816 9.35239 0.0902757 11.8801 0.296825 12.9293C1.01983 16.6731 6.17553 19.1134 8.24102 20.9177C8.13774 20.9733 8.04241 21.0289 7.95503 21.0767C6.92228 21.5854 2.98991 23.6441 2.00483 25.822C0.892639 28.2861 2.1796 30.0587 3.03757 30.2972C5.69093 31.0364 8.40785 29.709 9.87752 27.5231C11.3392 25.3372 11.1645 22.4995 10.4892 21.2039L10.4653 21.1562L11.2756 20.6793C11.8 20.3693 12.3164 20.0831 12.7691 19.8366C12.515 20.5282 12.3322 21.3469 12.2369 22.5392C12.1257 23.9383 12.6977 25.7505 13.4524 26.4659C13.7861 26.7758 14.1833 26.7838 14.4295 26.7838C15.3034 26.7838 15.7006 26.0604 16.1375 25.1941C16.6778 24.1369 17.1544 22.9128 17.1544 22.9128C17.1544 22.9128 16.5586 26.2274 18.1871 26.2274C18.783 26.2274 19.3788 25.4564 19.6489 25.0589V25.0669C19.6489 25.0669 19.6648 25.043 19.6965 24.9874C19.7299 24.9381 19.7617 24.8877 19.7919 24.8365V24.8206C20.0302 24.4072 20.5625 23.4613 21.3569 21.8954C22.3816 19.8765 23.3668 17.3488 23.3668 17.3488C23.3668 17.3488 23.4621 17.9688 23.756 18.9862C23.9307 19.5904 24.312 20.2501 24.606 20.8939C24.3677 21.2277 24.2247 21.4186 24.2247 21.4186L24.2326 21.4265C24.042 21.6809 23.8274 21.9512 23.6051 22.2214C22.7948 23.1912 21.8256 24.2961 21.6985 24.614C21.5475 24.9876 21.5793 25.2658 21.8733 25.4884C22.0877 25.6474 22.4691 25.6791 22.8742 25.6474C23.6051 25.5996 24.1135 25.4169 24.3677 25.3055C24.7649 25.1624 25.2178 24.9478 25.6547 24.6299C26.4491 24.0417 26.9337 23.2071 26.886 22.0943C26.8622 21.4823 26.6636 20.8782 26.4173 20.3059C26.4888 20.2025 26.5604 20.0991 26.6318 19.9879C27.887 18.1517 28.8562 16.1328 28.8562 16.1328C28.8562 16.1328 28.9515 16.7528 29.2455 17.7702C29.3963 18.2869 29.6983 18.8513 29.9684 19.4077C28.7926 20.3695 28.0538 21.4823 27.7996 22.2136C27.3309 23.5649 27.6963 24.177 28.3875 24.32C28.6972 24.3836 29.1422 24.2405 29.4758 24.0975C29.8889 23.9623 30.3894 23.7317 30.8502 23.39C31.6446 22.8018 32.4073 21.9831 32.3675 20.8782C32.3437 20.3695 32.2086 19.8688 32.0259 19.3918C33.0269 18.9785 34.3217 18.74 35.9663 18.9388C39.5014 19.3521 40.2005 21.5618 40.0655 22.4839C39.9305 23.406 39.1917 23.9146 38.9453 24.0736C38.6991 24.2246 38.6196 24.2804 38.6434 24.3916C38.6752 24.5586 38.7864 24.5505 39.0009 24.5188C39.2949 24.4711 40.8599 23.7637 40.9234 22.0628C41.0188 19.8765 38.9453 17.4919 35.2672 17.5157ZM8.00269 26.7123C6.8349 27.9921 5.19045 28.477 4.49136 28.0636C3.73666 27.6264 4.03052 25.7426 5.46849 24.3834C6.34236 23.5567 7.47838 22.7936 8.22513 22.3247C8.39196 22.2213 8.64617 22.0704 8.94805 21.8875C8.99572 21.8558 9.02749 21.8398 9.02749 21.8398C9.0831 21.808 9.14666 21.7683 9.21021 21.7285C9.74247 23.668 9.23404 25.369 8.00269 26.7123ZM16.5427 20.9018C16.1375 21.8954 15.2796 24.447 14.7632 24.3039C14.3182 24.1847 14.0482 22.2531 14.6757 20.3454C14.9935 19.3836 15.6688 18.239 16.066 17.7938C16.7095 17.0784 17.4085 16.84 17.5834 17.1341C17.7899 17.5157 16.7969 20.2819 16.5427 20.9018ZM23.5892 24.2721C23.4144 24.3596 23.2555 24.4231 23.184 24.3755C23.1284 24.3437 23.2555 24.2245 23.2555 24.2245C23.2555 24.2245 24.1373 23.2786 24.4868 22.8414C24.6854 22.5871 24.9237 22.293 25.178 21.9591V22.0545C25.178 23.199 24.0817 23.9621 23.5892 24.2721ZM29.0229 23.0321C28.8958 22.9367 28.9118 22.6426 29.3407 21.7206C29.5076 21.3549 29.8889 20.7429 30.5482 20.1626C30.6277 20.4011 30.6754 20.6315 30.6674 20.8462C30.6595 22.277 29.6427 22.8095 29.0229 23.0321Z" fill="#848484"/>
</svg>
