<svg width="25" height="27" viewBox="0 0 25 27" fill="none" xmlns="http://www.w3.org/2000/svg">
<path d="M23.7704 20.6146L13.0043 26.7045V21.9613L19.7122 18.2713L23.7704 20.6146ZM24.5068 19.9476V7.21161L20.5671 9.48535V17.6713L24.5068 19.9476ZM1.29309 20.6146L12.0592 26.7045V21.9613L5.35132 18.2713L1.29309 20.6146ZM0.556641 19.9476V7.21161L4.49641 9.48535V17.6713L0.556641 19.9476ZM1.01757 6.38761L12.0592 0.140625V4.72673L4.98567 8.61757L4.93159 8.64847L1.01757 6.38761ZM24.0459 6.38761L13.0043 0.140625V4.72673L20.0778 8.61757L20.1319 8.64847L24.0459 6.38761Z" fill="#848484"/>
<path d="M12.0592 20.8824L5.44141 17.2439V10.0338L12.0592 13.8552V20.8824ZM13.0042 20.8824L19.622 17.2439V10.0338L13.0042 13.8552V20.8824ZM5.88946 9.19954L12.533 5.54559L19.1765 9.19954L12.533 13.0363L5.88946 9.19954Z" fill="#848484"/>
</svg>
