<svg width="33" height="30" viewBox="0 0 33 30" fill="none" xmlns="http://www.w3.org/2000/svg">
<path d="M0 14.9173C0 17.3422 2.36785 19.6058 6.10077 20.8818C5.35532 24.6345 5.96725 27.6594 8.0109 28.8379C10.1115 30.0494 13.2409 29.2108 16.2112 26.6143C19.1066 29.106 22.0327 30.0865 24.0746 28.9046C26.1733 27.6897 26.8114 24.4598 26.0454 20.5898C29.9336 19.3043 32.1085 17.3741 32.1085 14.9173C32.1085 12.5487 29.7363 10.4996 26.0536 9.23187C26.8783 5.202 26.1796 2.25062 24.0512 1.02334C21.9994 -0.159886 19.0392 0.871401 16.1013 3.42817C13.0448 0.714412 10.1139 -0.114076 7.9878 1.1166C5.93785 2.30324 5.35292 5.38309 6.10077 9.20524C2.49379 10.4628 0 12.5583 0 14.9173Z" fill="#15161C"/>
<path d="M25.2743 10.491C24.9708 10.3869 24.6648 10.2905 24.3564 10.2018C24.4075 9.994 24.4548 9.78528 24.4982 9.57573C25.1931 6.20272 24.7388 3.48544 23.1873 2.59095C21.6998 1.73305 19.267 2.62754 16.8099 4.76571C16.5678 4.97688 16.331 5.19414 16.0999 5.41727C15.9451 5.2689 15.7876 5.12341 15.6274 4.98088C13.0524 2.69443 10.4712 1.73104 8.92141 2.62817C7.4353 3.48846 6.99513 6.04308 7.62069 9.23967C7.68293 9.55622 7.7532 9.87115 7.83144 10.1841C7.46622 10.2879 7.1135 10.3984 6.77605 10.516C3.75715 11.5685 1.8291 13.2182 1.8291 14.9292C1.8291 16.6964 3.89874 18.469 7.04333 19.5437C7.29831 19.6304 7.55542 19.7108 7.8144 19.7847C7.73027 20.1219 7.65557 20.4614 7.5904 20.8028C6.99399 23.9438 7.45979 26.4379 8.94198 27.2929C10.4729 28.1756 13.0423 27.2683 15.5443 25.0813C15.742 24.9084 15.9405 24.725 16.1393 24.5328C16.3896 24.7744 16.6467 25.0089 16.9101 25.2361C19.3336 27.3215 21.7271 28.1636 23.208 27.3064C24.7375 26.421 25.2345 23.7417 24.5891 20.4819C24.5399 20.2329 24.4825 19.9786 24.4181 19.7196C24.5986 19.6664 24.7756 19.6113 24.9484 19.5541C28.2174 18.471 30.3442 16.72 30.3442 14.9292C30.3442 13.212 28.3541 11.5512 25.2743 10.491Z" fill="#848484"/>
<path d="M24.565 18.3976C24.4091 18.4492 24.2491 18.4991 24.086 18.5474C23.7251 17.4049 23.238 16.19 22.6421 14.935C23.2109 13.7096 23.6791 12.5104 24.0299 11.3752C24.3215 11.4598 24.6047 11.5487 24.8775 11.6428C27.5163 12.551 29.1259 13.8941 29.1259 14.929C29.1259 16.0313 27.3875 17.4624 24.5651 18.3976H24.565ZM23.3938 20.7183C23.6792 22.1597 23.7199 23.4629 23.5309 24.4817C23.361 25.3972 23.0195 26.0075 22.5973 26.2519C21.6986 26.7721 19.7768 26.0959 17.7044 24.3125C17.4667 24.1081 17.2273 23.8897 16.9873 23.6588C17.7908 22.78 18.5938 21.7583 19.3775 20.6237C20.7561 20.5015 22.0584 20.3014 23.2395 20.0285C23.2976 20.2632 23.3493 20.4933 23.3938 20.7183ZM11.5502 26.1621C10.6722 26.4721 9.97298 26.481 9.55034 26.2373C8.65081 25.7186 8.27701 23.7158 8.78697 21.0297C8.84762 20.7123 8.91705 20.3966 8.9952 20.083C10.1632 20.3413 11.4561 20.5272 12.8379 20.6393C13.6268 21.7494 14.453 22.7699 15.2856 23.6635C15.1087 23.8346 14.9275 24.0014 14.7424 24.1637C13.636 25.1309 12.5273 25.8169 11.5503 26.1621H11.5502ZM7.43704 18.3908C6.04659 17.9155 4.89832 17.2979 4.11123 16.624C3.40401 16.0183 3.04688 15.417 3.04688 14.929C3.04688 13.8907 4.59494 12.5663 7.17682 11.6661C7.50088 11.5536 7.82817 11.4506 8.15826 11.3573C8.51514 12.5179 8.98321 13.7315 9.54807 14.9586C8.97589 16.2041 8.50114 17.4369 8.14097 18.6111C7.90455 18.5435 7.66984 18.47 7.43704 18.3908ZM8.81587 9.00549C8.27991 6.26662 8.63579 4.20064 9.53141 3.68222C10.4855 3.12998 12.5949 3.91745 14.8182 5.89156C14.9603 6.01776 15.103 6.14989 15.246 6.28656C14.4177 7.17613 13.599 8.18886 12.817 9.29259C11.4759 9.41689 10.1921 9.61654 9.01186 9.88395C8.93916 9.59278 8.87381 9.29982 8.81587 9.00536V9.00549ZM21.116 12.0427C20.8372 11.5612 20.5481 11.0857 20.2489 10.6167C21.1588 10.7315 22.0304 10.8842 22.8489 11.0711C22.6032 11.8587 22.2969 12.6823 21.9363 13.5265C21.6727 13.0265 21.3993 12.5318 21.116 12.0427ZM16.1 7.15707C16.6618 7.76572 17.2245 8.44542 17.778 9.18279C16.6553 9.12974 15.5306 9.12949 14.4078 9.18204C14.9618 8.45148 15.5293 7.77279 16.1 7.15707ZM11.0518 12.051C10.7721 12.5362 10.5037 13.0279 10.247 13.5256C9.89221 12.6843 9.58871 11.857 9.34085 11.0582C10.1545 10.8761 11.0221 10.7273 11.926 10.6144C11.6234 11.0863 11.3319 11.5654 11.0518 12.051ZM11.952 19.3305C11.0181 19.2262 10.1374 19.085 9.32407 18.908C9.57584 18.095 9.88603 17.25 10.2483 16.3906C10.5062 16.8887 10.7758 17.3806 11.0568 17.8661C11.3435 18.3613 11.642 18.8495 11.952 19.3305ZM16.1337 22.7869C15.5563 22.1639 14.9805 21.4748 14.418 20.7337C14.964 20.7551 15.5206 20.766 16.0864 20.766C16.6676 20.766 17.2422 20.753 17.8077 20.7277C17.2524 21.4824 16.6917 22.1724 16.1337 22.7869ZM21.9479 16.3468C22.329 17.2155 22.6503 18.056 22.9055 18.8552C22.0786 19.0439 21.186 19.1958 20.2455 19.3086C20.5469 18.8308 20.8387 18.347 21.1209 17.8576C21.4077 17.3602 21.6835 16.8565 21.9479 16.3468ZM20.0656 17.2491C19.6337 17.9995 19.1774 18.7356 18.6976 19.4563C17.8516 19.5167 16.9773 19.5479 16.0864 19.5479C15.1991 19.5479 14.3359 19.5203 13.5046 19.4664C13.0124 18.7474 12.5475 18.01 12.111 17.2558C11.6766 16.5056 11.2708 15.7392 10.8945 14.9582C11.2698 14.177 11.6744 13.4102 12.1074 12.6594V12.6597C12.5402 11.9087 13.0014 11.1745 13.49 10.4585C14.338 10.3944 15.2075 10.3608 16.0865 10.3608C16.9694 10.3608 17.84 10.3947 18.6878 10.4593C19.1714 11.1741 19.6297 11.9058 20.0617 12.653C20.4962 13.4021 20.9062 14.1652 21.291 14.9409C20.9101 15.7246 20.5014 16.4945 20.0658 17.2491H20.0656ZM22.5786 3.646C23.5334 4.19673 23.9048 6.41743 23.3049 9.32969C23.2656 9.51941 23.2228 9.7084 23.1767 9.89657C21.9937 9.6236 20.709 9.42043 19.364 9.29423C18.5804 8.17851 17.7686 7.16401 16.9536 6.28593C17.1672 6.08004 17.3858 5.8795 17.6093 5.68447C19.7146 3.85233 21.6821 3.12897 22.5786 3.646Z" fill="#15161C"/>
<path d="M16.0858 12.3828C17.4922 12.3828 18.6321 13.5229 18.6321 14.9291C18.6321 16.3354 17.4922 17.4755 16.0858 17.4755C14.6796 17.4755 13.5396 16.3354 13.5396 14.9291C13.5396 13.5229 14.6796 12.3828 16.0858 12.3828Z" fill="#848484"/>
</svg>
