<svg width="18" height="28" viewBox="0 0 18 28" fill="none" xmlns="http://www.w3.org/2000/svg">
<path d="M4.62162 27.3624C7.08327 27.3624 9.08113 25.3645 9.08113 22.9029V18.4434H4.62162C2.15997 18.4434 0.162109 20.4412 0.162109 22.9029C0.162109 25.3645 2.15997 27.3624 4.62162 27.3624Z" fill="#848484"/>
<path d="M0.162109 13.9839C0.162109 11.5223 2.15997 9.52443 4.62162 9.52443H9.08113V18.4434H4.62162C2.15997 18.4434 0.162109 16.4456 0.162109 13.9839Z" fill="#848484"/>
<path d="M0.162109 5.06493C0.162109 2.60328 2.15997 0.605423 4.62162 0.605423H9.08113V9.52444H4.62162C2.15997 9.52444 0.162109 7.52658 0.162109 5.06493Z" fill="#848484"/>
<path d="M9.08008 0.605377H13.5396C16.0012 0.605377 17.9991 2.60324 17.9991 5.06489C17.9991 7.52654 16.0012 9.5244 13.5396 9.5244H9.08008V0.605377Z" fill="#848484"/>
<path d="M17.9991 13.9839C17.9991 16.4456 16.0012 18.4434 13.5396 18.4434C11.0779 18.4434 9.08008 16.4456 9.08008 13.9839C9.08008 11.5223 11.0779 9.52443 13.5396 9.52443C16.0012 9.52443 17.9991 11.5223 17.9991 13.9839Z" fill="#848484"/>
</svg>
