<svg width="27" height="28" viewBox="0 0 27 28" fill="none" xmlns="http://www.w3.org/2000/svg">
<path d="M13.4598 27.3266C13.9972 27.3224 14.5253 27.2915 15.0535 27.2221C16.2632 27.0649 17.4502 26.7388 18.5685 26.2597C20.1445 25.5891 21.5856 24.6175 22.8078 23.4244C23.9303 22.3224 24.8684 21.0247 25.5365 19.6008C26.1041 18.3817 26.5098 17.0665 26.6758 15.7295C26.8418 14.4361 26.8284 13.1125 26.628 11.8274C26.462 10.7563 26.1561 9.71532 25.7419 8.71782C25.4712 8.09491 25.1526 7.48956 24.7854 6.91514C23.4802 4.86832 21.5889 3.22199 19.411 2.12082C18.6339 1.72449 17.8174 1.40259 16.9833 1.15426H16.9749C17.1098 1.22366 17.2457 1.29807 17.3639 1.37667C17.4946 1.45944 17.6304 1.54222 17.757 1.62918C18.3899 2.0556 18.9793 2.54808 19.499 3.10995C20.6869 4.38587 21.5076 5.9536 21.9746 7.61749C22.2931 8.7103 22.4633 9.84241 22.5287 10.9795C22.5765 11.8073 22.5765 12.6434 22.4759 13.4662C22.3099 14.8817 21.8555 16.2622 21.1052 17.4729C20.5511 18.37 19.8302 19.1668 18.9793 19.7981C17.5868 20.8299 15.761 21.4486 14.019 21.0389C13.7348 20.9695 13.4473 20.8776 13.1849 20.7513C12.8789 20.6117 12.5779 20.4419 12.3114 20.2505C11.7916 19.9018 11.3247 19.4888 10.9231 19.018C10.4344 18.4386 10.032 17.7772 9.74864 17.0715C9.39907 16.1702 9.21128 15.2078 9.19871 14.2362C9.1635 12.8165 9.44769 11.3926 10.1502 10.1468C10.6222 9.31482 11.2551 8.58739 12.0104 8.00879C12.2636 7.80812 12.5302 7.63839 12.7967 7.47284L12.8143 7.46448C12.2946 7.3516 11.7447 7.29892 11.2031 7.33404C10.7362 7.36414 10.286 7.45193 9.83247 7.59993C9.43092 7.73454 9.04614 7.9001 8.69321 8.10076C8.40902 8.26632 8.12567 8.45361 7.87669 8.65344C7.64113 8.85411 7.40472 9.05394 7.18676 9.27217C5.93349 10.5565 5.20919 12.2596 4.925 14.0147C4.75902 15.1033 4.75902 16.2011 4.8244 17.3073C4.94261 18.8617 5.26116 20.4127 5.88068 21.8316C6.26462 22.7204 6.76677 23.5339 7.38712 24.2572C8.34363 25.355 9.54828 26.2129 10.8887 26.7438C11.6441 27.044 12.4472 27.2622 13.2511 27.345C13.3341 27.3625 13.4171 27.3625 13.4825 27.3625L13.4598 27.3266ZM10.1812 26.8826C9.99762 26.804 9.83163 26.717 9.67906 26.6301C9.51308 26.5339 9.3429 26.4428 9.17691 26.3383C8.52219 25.9378 7.93705 25.4628 7.39969 24.9185C6.17744 23.651 5.35589 22.0573 4.88895 20.3675C4.5704 19.2137 4.40022 18.0247 4.33483 16.8316C4.28705 16.0473 4.30465 15.2772 4.38764 14.5105C4.53603 13.1083 4.94177 11.7237 5.64511 10.5213C6.14307 9.63254 6.833 8.8491 7.6361 8.23036C8.18603 7.8123 8.81057 7.45946 9.4611 7.22869C10.3824 6.8934 11.3691 6.79307 12.3256 6.92852C12.697 6.97618 13.0633 7.05896 13.3995 7.17685C13.4297 7.17685 13.4297 7.17685 13.4473 7.21197C13.4649 7.22953 13.5001 7.22953 13.5168 7.24207C13.5646 7.26381 13.63 7.29474 13.7004 7.32484C13.967 7.45946 14.2328 7.63003 14.4868 7.79558C15.4911 8.49709 16.3118 9.46364 16.8315 10.5824C17.2985 11.6016 17.5173 12.7421 17.5349 13.8616C17.5525 15.064 17.3337 16.2655 16.8148 17.3675C16.1944 18.6869 15.1423 19.8065 13.8673 20.5247C13.9679 20.5598 14.0685 20.5724 14.1682 20.6075C14.4214 20.6551 14.6704 20.6903 14.9369 20.6903C16.5784 20.7429 18.172 19.9545 19.3423 18.8525C19.5602 18.6518 19.7614 18.4344 19.945 18.2036C20.1982 17.9035 20.4337 17.6025 20.6349 17.2847C20.9015 16.8667 21.1195 16.4486 21.3207 16.0005C21.5739 15.3993 21.77 14.7814 21.8882 14.1451C22.1062 13.0255 22.1238 11.8892 22.0542 10.7705C21.9058 8.51465 21.3031 6.25879 19.9978 4.39089C19.7966 4.10744 19.5963 3.83821 19.3775 3.58988C19.0061 3.17182 18.6046 2.78386 18.1854 2.43603C17.7185 2.05309 17.1987 1.70025 16.6614 1.4168C16.1114 1.16847 15.4559 0.915964 14.771 0.750412L14.4348 0.681013C14.2034 0.645896 13.9679 0.633354 13.7273 0.615796C13.3651 0.598237 12.9803 0.602418 12.5922 0.633354C11.8059 0.681013 11.0162 0.812285 10.234 1.00794C6.48342 1.9745 3.19976 4.5832 1.45356 8.04056C0.894404 9.14257 0.497044 10.3223 0.265671 11.533C-0.000912212 12.9177 -0.0352829 14.3466 0.147469 15.7396C0.282437 16.8759 0.566624 17.9954 1.01596 19.0582C1.27332 19.6936 1.58769 20.3123 1.94145 20.8959C3.16371 22.8859 4.94093 24.5063 6.9797 25.6251C7.74843 26.0607 8.55572 26.3918 9.38984 26.6786C9.64301 26.7613 9.89618 26.8441 10.1628 26.9093L10.1812 26.8826Z" fill="#848484"/>
</svg>
