<svg width="31" height="31" viewBox="0 0 31 31" fill="none" xmlns="http://www.w3.org/2000/svg">
<path fill-rule="evenodd" clip-rule="evenodd" d="M6.42949 22.5983C6.42447 22.5481 6.41442 22.4781 6.40437 22.3682C6.39432 22.3131 6.3893 22.2631 6.38427 22.213L6.16901 22.2331H6.11394C5.55839 22.258 4.91261 22.213 4.29194 22.1081C3.6763 22.003 3.08076 21.8378 2.62028 21.6275C1.67421 21.1872 0.878476 20.5615 0.513072 20.066C0.292786 19.7559 0.157715 19.4305 0.137619 19.1C0.0925957 18.4542 0.362929 17.9588 0.988426 17.6585C1.34881 17.4833 1.84445 17.4382 2.47999 17.5685C3.29583 17.7387 3.81137 17.8487 4.13678 17.9287C2.68018 15.5113 1.60909 12.9137 0.973547 10.6113C0.0925958 7.42797 0.082741 4.66028 1.03364 3.44407C2.47516 1.6072 4.25697 0.686247 5.99877 0.270795C8.54134 -0.334798 11.0739 0.220748 12.155 0.531081C12.4636 0.474801 12.7741 0.429748 13.086 0.39601C13.5364 0.350987 13.982 0.320843 14.4324 0.315819C15.3184 0.300746 16.119 0.416107 16.8397 0.631176C17.3589 0.783097 17.8567 1.00001 18.3215 1.27677C20.9689 0.375721 30.6839 -2.20684 30.1435 8.59432C30.0785 9.8857 29.0676 15.126 27.536 18.7596C27.0054 20.016 26.4048 21.107 25.7339 21.8476C24.8081 22.8787 23.7418 23.3342 22.5309 22.8986C22.2054 22.7834 21.8851 22.6034 21.5749 22.3481C21.5247 22.4082 21.4648 22.4731 21.4047 22.5282C21.0393 22.8737 20.4488 23.144 19.9835 23.259C19.4279 23.3993 18.5017 23.5643 17.4707 23.3892C17.0669 23.3227 16.6734 23.205 16.2995 23.0389C16.3145 23.2039 16.3244 23.3842 16.3196 23.5744C16.3093 23.8445 16.3045 24.115 16.2946 24.305C16.2693 24.9608 16.2345 25.6114 16.1644 26.2419C16.0892 26.9026 15.9791 27.4883 15.8088 27.9536C15.7839 28.0187 15.764 28.0786 15.7391 28.1488C15.3435 29.37 14.6328 31.5423 11.2594 30.8216C9.94808 30.5414 8.78172 30.186 7.84589 28.8446C7.03006 27.6885 6.50949 25.8315 6.42949 22.5983Z" fill="#848484"/>
<path fill-rule="evenodd" clip-rule="evenodd" d="M7.78303 20.3108C7.86805 18.6692 7.05724 18.374 6.49165 18.2136C6.55175 18.1286 6.63194 18.0285 6.72179 17.9133C7.01203 17.558 7.37762 17.0973 7.67269 16.3817C7.71772 16.2716 7.85298 16.0314 8.02805 15.7161C8.77374 14.3797 10.2452 11.742 9.95497 9.93509C9.74976 8.64893 8.76871 7.79793 6.32122 8.0532C6.32624 8.02827 6.33629 8.00315 6.34615 7.97803C6.46131 7.64779 6.64643 7.21224 6.91676 6.72684C7.98824 4.78002 10.3155 2.06238 14.4598 1.99726C19.4597 1.91224 20.3708 6.88723 20.5359 8.97936C20.2929 8.82929 20.0385 8.69877 19.7749 8.58903C19.3548 8.41899 18.8793 8.27368 18.4037 8.19851C17.9083 8.12353 17.4078 8.13358 16.9572 8.27348C16.2515 8.49377 15.6909 9.01936 15.4706 10.0203C14.7 13.599 15.3906 15.1406 15.9315 16.3468C16.327 17.2177 16.1628 16.8461 16.4111 17.5446C16.5017 17.7991 16.5813 18.0387 16.6368 18.2586C16.5776 18.2441 16.5174 18.234 16.4567 18.2287C16.1313 18.1987 15.751 18.3288 15.4857 18.5189C15.2005 18.7241 14.9703 19.0445 14.8401 19.3999C14.7249 19.7303 14.74 20.0456 14.745 20.391C14.78 21.9975 14.77 23.5841 14.7101 24.8755C14.65 26.1619 14.5448 27.1228 14.4047 27.4832C14.2546 27.8585 14.0142 28.414 13.5588 28.7995C13.1184 29.1748 12.4376 29.4001 11.3567 29.1697C10.4106 28.9645 9.77005 28.6745 9.34957 28.2339C8.92407 27.7984 8.68891 27.1777 8.53876 26.3168C8.43365 25.6861 8.2835 24.5851 8.14322 23.4941C7.97317 22.1627 7.82303 20.7965 7.78303 20.3108ZM19.5301 21.0968C17.8835 20.7564 17.7181 20.5513 17.1875 19.8756C16.9975 19.6338 16.7936 19.4032 16.5769 19.185C16.5254 19.1316 16.4557 19.0994 16.3817 19.0947C16.2617 19.0847 16.0915 19.1498 15.9862 19.225C15.8461 19.3251 15.7261 19.4953 15.6559 19.6855C15.591 19.8808 15.5657 20.121 15.6911 20.2961C16.3067 21.1521 17.0627 21.5123 17.7684 21.6325C18.4839 21.7575 19.1595 21.6325 19.5652 21.5324C19.7652 21.4821 19.9956 21.3871 20.1457 21.282C20.0257 21.2219 19.8251 21.1567 19.5301 21.0968ZM20.0056 17.9636C20.1396 17.8494 20.2666 17.7274 20.3861 17.5982C21.0114 16.9124 21.4319 16.0115 21.5269 15.0055C21.5636 14.6371 21.5552 14.2657 21.502 13.8993C21.2918 12.3928 21.3718 11.0363 21.4168 10.3306C21.427 10.1455 21.4371 10.0052 21.4319 9.89529C21.4371 9.86032 21.5519 5.33073 18.9745 2.79802C21.3016 2.03224 28.8246 0.195361 28.414 8.46382C28.3539 9.66998 27.398 14.5999 25.9464 18.0385C25.4913 19.1197 24.9854 20.0456 24.45 20.6412C24.0046 21.1366 23.5491 21.377 23.1088 21.2168C22.8684 21.1316 22.6083 20.9314 22.3327 20.601C21.5846 19.6979 20.8085 18.8184 20.0056 17.9636ZM10.811 1.90219C8.45355 2.94333 6.97203 4.83006 6.16122 6.31178C5.91194 6.75341 5.70094 7.21557 5.53051 7.6932C5.38037 8.11348 5.32529 8.44391 5.35041 8.58903C5.35041 8.6041 5.35524 8.61918 5.35524 8.63406C5.33515 9.2497 5.41032 9.7552 5.49553 10.2858C5.55563 10.6962 5.62055 11.1217 5.64065 11.6222C5.65572 12.0978 5.59563 12.5982 5.53051 13.1188C5.37032 14.4452 5.20027 15.8565 6.09108 17.318C6.07601 17.3381 6.06093 17.3582 6.04605 17.3732C6.01108 17.4181 5.97591 17.4633 5.94094 17.5033C4.40434 15.0857 3.2832 12.428 2.64263 10.1007C1.90197 7.42306 1.7868 5.24068 2.39742 4.455C3.45344 3.10855 4.74463 2.37291 6.03118 1.99746C7.858 1.47167 9.67981 1.67186 10.811 1.90219ZM20.566 9.89027C20.566 10.0203 20.5558 10.1506 20.5509 10.2806C20.5061 11.0064 20.4207 12.4129 20.646 14.0195C20.6908 14.3298 20.6962 14.6351 20.6661 14.9253C20.5956 15.7031 20.2721 16.4362 19.7451 17.0125C19.2497 17.558 18.594 17.9282 17.8731 18.0285C17.7429 18.0486 17.6078 18.0534 17.4775 18.0584C17.4122 17.7935 17.3208 17.5191 17.2163 17.232C17.0725 16.8364 17.0329 16.6758 16.7218 15.9914C16.2312 14.9002 15.6059 13.5089 16.3214 10.2004C16.4565 9.55984 16.797 9.22941 17.2124 9.09936C17.5276 8.99907 17.8978 8.99907 18.2783 9.05434C18.6787 9.11443 19.0841 9.24448 19.4495 9.3896C20.0808 9.65008 20.5612 9.87017 20.566 9.89027ZM17.9985 9.52989C17.6793 9.46148 17.2449 9.52022 16.9572 9.675C16.7921 9.77008 16.7021 9.89529 16.7172 10.0304C16.7319 10.1355 16.8372 10.2856 16.9972 10.3958C17.1473 10.4959 17.3527 10.571 17.5728 10.5409H17.578C17.7931 10.5109 17.9834 10.3857 18.1185 10.2456C18.2491 10.1055 18.3307 9.95442 18.3235 9.82437C18.3164 9.69433 18.2213 9.58554 17.9985 9.52989ZM6.22151 8.92932C8.20351 8.68391 8.96929 9.22458 9.10436 10.0706C9.34474 11.582 7.97317 14.0446 7.2727 15.3008C7.08256 15.6363 6.94227 15.8965 6.87715 16.0515C6.80218 16.2217 6.72701 16.3819 6.64701 16.522C6.12663 15.421 6.2617 14.2898 6.39175 13.2187C6.45687 12.6632 6.5218 12.1225 6.50692 11.5969C6.48682 11.0514 6.41668 10.596 6.35175 10.1604C6.28644 9.75519 6.22634 9.36467 6.22151 8.92932ZM5.9761 18.9645C6.04122 18.9846 6.11639 19.0045 6.19137 19.0294C6.49165 19.1146 6.9672 19.2447 6.91715 20.2758C6.87696 20.3158 6.74691 20.3558 6.55175 20.391C6.24644 20.4561 5.84103 20.4661 5.41051 20.4458C4.6598 20.401 3.85904 20.2406 3.34832 20.0056C2.82273 19.7602 2.38235 19.465 2.11221 19.2047C3.23992 19.4147 4.95313 19.7369 5.9761 18.9645ZM7.0271 9.52989C7.01203 9.61993 7.0872 9.7751 7.21222 9.90534C7.36371 10.0628 7.53956 10.1589 7.72583 10.1797C7.87076 10.196 8.02206 10.1668 8.17317 10.0854C8.35113 9.98669 8.48157 9.85239 8.48389 9.71732C8.48543 9.62496 8.42727 9.5322 8.28312 9.44969C8.16293 9.38457 7.99288 9.3295 7.80255 9.29955C7.6124 9.27443 7.43212 9.27946 7.29705 9.31462C7.14227 9.34979 7.04237 9.42477 7.0271 9.52989ZM5.45573 18.3489C5.25554 18.5392 4.5798 18.8345 2.3124 18.3639C1.87202 18.2739 1.56169 18.294 1.3615 18.3891C1.10121 18.5141 0.986045 18.7193 1.00614 18.9894C1.01619 19.1546 1.09116 19.3247 1.21638 19.5001C1.50681 19.9005 2.1723 20.4111 2.98814 20.7915C3.59373 21.0717 4.5197 21.2621 5.36568 21.3121C5.86113 21.337 6.33668 21.3169 6.72198 21.242C6.81706 21.2219 6.91213 21.1969 6.99734 21.172C7.06729 21.8075 7.1726 22.6984 7.28758 23.5994C7.42787 24.7306 7.58303 25.8517 7.68796 26.4623C7.86825 27.4983 8.16834 28.2592 8.72408 28.8347C9.27981 29.4101 10.0555 29.7755 11.1766 30.0159C12.5779 30.3162 13.4991 29.986 14.1195 29.4652C14.7302 28.9496 15.0204 28.2639 15.2057 27.8034C15.3908 27.3481 15.5112 26.2821 15.5761 24.9155C15.621 23.9196 15.6411 22.7434 15.6312 21.5219C16.2619 22.0926 16.9574 22.3728 17.6182 22.4881C18.4938 22.6381 19.2947 22.4929 19.7751 22.3728C20.1256 22.2827 20.5612 22.0873 20.8164 21.8472C20.9666 21.7069 21.0667 21.542 21.0968 21.3519C21.1266 21.1314 21.0616 20.9164 20.8564 20.7262C20.6613 20.5409 20.3009 20.3759 19.7005 20.2507C18.3689 19.9755 18.2489 19.8254 17.8687 19.3398C17.7708 19.2164 17.669 19.0962 17.5633 18.9794C17.5682 18.9593 17.5682 18.9394 17.5682 18.9193C17.7105 18.9154 17.8525 18.9036 17.9935 18.8841C18.4456 18.8193 18.8829 18.6754 19.2851 18.4588C19.6454 18.8393 20.6112 19.8853 21.6676 21.1565C22.0427 21.612 22.4334 21.8924 22.8235 22.0325C23.6492 22.3277 24.4053 21.9824 25.096 21.2217C25.6963 20.551 26.2471 19.5448 26.7425 18.3738C28.2341 14.8401 29.2149 9.74998 29.2802 8.50362C29.7906 -1.74683 19.7853 1.56152 18.1939 2.15204C17.2478 1.50645 16.0264 1.10607 14.4449 1.131C13.6792 1.14085 12.9634 1.23592 12.3078 1.39631C11.9924 1.31128 11.547 1.18607 11.5219 1.17602C11.4618 1.16095 11.3919 1.14607 11.3016 1.12597C10.1254 0.850615 7.97317 0.540476 5.79099 1.171C4.34966 1.58645 2.90311 2.41233 1.71685 3.9238C0.935998 4.92475 1.00112 7.39736 1.81192 10.3303C2.50756 12.8533 3.7489 15.7563 5.45573 18.3489Z" fill="#15161C"/>
</svg>
