<svg width="33" height="30" viewBox="0 0 33 30" fill="none" xmlns="http://www.w3.org/2000/svg">
<path d="M0 14.9173C0 17.3422 2.36785 19.6058 6.10077 20.8818C5.35532 24.6345 5.96725 27.6594 8.0109 28.8379C10.1115 30.0494 13.2409 29.2108 16.2112 26.6143C19.1066 29.106 22.0327 30.0865 24.0746 28.9046C26.1733 27.6897 26.8114 24.4598 26.0454 20.5898C29.9336 19.3043 32.1085 17.3741 32.1085 14.9173C32.1085 12.5487 29.7363 10.4996 26.0536 9.23187C26.8783 5.202 26.1796 2.25062 24.0512 1.02334C21.9994 -0.159886 19.0392 0.871401 16.1013 3.42817C13.0448 0.714412 10.1139 -0.114076 7.9878 1.1166C5.93785 2.30324 5.35292 5.38309 6.10077 9.20524C2.49379 10.4628 0 12.5583 0 14.9173Z" fill="#15161C"/>
<path d="M25.2734 10.491C24.9699 10.3869 24.6638 10.2904 24.3554 10.2017C24.4065 9.99394 24.4538 9.78522 24.4973 9.57567C25.1921 6.20266 24.7378 3.48537 23.1863 2.59089C21.6988 1.73299 19.266 2.62748 16.8089 4.76565C16.5668 4.97682 16.3301 5.19408 16.0989 5.41721C15.9441 5.26884 15.7866 5.12335 15.6264 4.98082C13.0514 2.69437 10.4703 1.73097 8.92043 2.62811C7.43433 3.4884 6.99415 6.04302 7.61971 9.23961C7.68195 9.55616 7.75222 9.87109 7.83046 10.1841C7.46525 10.2878 7.11252 10.3984 6.77507 10.516C3.75617 11.5685 1.82812 13.2181 1.82812 14.9291C1.82812 16.6964 3.89777 18.4689 7.04236 19.5436C7.29734 19.6304 7.55444 19.7108 7.81343 19.7847C7.72929 20.1219 7.65459 20.4614 7.58942 20.8027C6.99301 23.9438 7.45881 26.4378 8.941 27.2928C10.4719 28.1756 13.0413 27.2682 15.5433 25.0812C15.741 24.9083 15.9395 24.7249 16.1383 24.5327C16.3887 24.7743 16.6457 25.0088 16.9091 25.236C19.3326 27.3215 21.7261 28.1636 23.207 27.3063C24.7365 26.4209 25.2335 23.7416 24.5881 20.4818C24.5389 20.2328 24.4815 19.9785 24.4171 19.7196C24.5976 19.6663 24.7746 19.6113 24.9474 19.554C28.2164 18.471 30.3432 16.72 30.3432 14.9291C30.3432 13.2119 28.3531 11.5512 25.2734 10.491Z" fill="#848484"/>
<path d="M24.565 18.3975C24.4091 18.4491 24.2491 18.499 24.086 18.5473C23.7251 17.4048 23.238 16.1899 22.6421 14.9349C23.2109 13.7095 23.6791 12.5103 24.0299 11.3751C24.3215 11.4597 24.6047 11.5486 24.8775 11.6427C27.5163 12.5509 29.1259 13.894 29.1259 14.9288C29.1259 16.0312 27.3875 17.4623 24.5651 18.3975H24.565ZM23.3938 20.7182C23.6792 22.1596 23.7199 23.4628 23.5309 24.4816C23.361 25.3971 23.0195 26.0074 22.5973 26.2518C21.6986 26.772 19.7768 26.0958 17.7044 24.3124C17.4667 24.108 17.2273 23.8896 16.9873 23.6587C17.7908 22.7799 18.5938 21.7582 19.3775 20.6236C20.7561 20.5014 22.0584 20.3013 23.2395 20.0284C23.2976 20.2631 23.3493 20.4931 23.3938 20.7182ZM11.5502 26.1619C10.6722 26.472 9.97298 26.4808 9.55034 26.2372C8.65081 25.7185 8.27701 23.7157 8.78697 21.0296C8.84762 20.7122 8.91705 20.3965 8.9952 20.0829C10.1632 20.3412 11.4561 20.5271 12.8379 20.6392C13.6268 21.7493 14.453 22.7698 15.2856 23.6634C15.1087 23.8345 14.9275 24.0013 14.7424 24.1636C13.636 25.1308 12.5273 25.8168 11.5503 26.1619H11.5502ZM7.43704 18.3907C6.04659 17.9154 4.89832 17.2978 4.11123 16.6239C3.40401 16.0182 3.04688 15.4169 3.04688 14.9288C3.04688 13.8906 4.59494 12.5662 7.17682 11.666C7.50088 11.5535 7.82817 11.4505 8.15826 11.3572C8.51514 12.5178 8.98321 13.7314 9.54807 14.9585C8.97589 16.2039 8.50114 17.4368 8.14097 18.611C7.90455 18.5434 7.66984 18.4699 7.43704 18.3907ZM8.81587 9.00538C8.27991 6.26651 8.63579 4.20053 9.53141 3.68211C10.4855 3.12987 12.5949 3.91735 14.8182 5.89145C14.9603 6.01765 15.103 6.14978 15.246 6.28645C14.4177 7.17602 13.599 8.18876 12.817 9.29248C11.4759 9.41678 10.1921 9.61643 9.01186 9.88384C8.93916 9.59267 8.87381 9.29972 8.81587 9.00525V9.00538ZM21.116 12.0426C20.8372 11.5611 20.5481 11.0856 20.2489 10.6165C21.1588 10.7314 22.0304 10.8841 22.8489 11.071C22.6032 11.8586 22.2969 12.6821 21.9363 13.5264C21.6727 13.0264 21.3993 12.5317 21.116 12.0426ZM16.1 7.15696C16.6618 7.76561 17.2245 8.44532 17.778 9.18269C16.6553 9.12963 15.5306 9.12938 14.4078 9.18193C14.9618 8.45137 15.5293 7.77268 16.1 7.15696ZM11.0518 12.0509C10.7721 12.5361 10.5037 13.0278 10.247 13.5255C9.89221 12.6842 9.58871 11.8569 9.34085 11.0581C10.1545 10.876 11.0221 10.7272 11.926 10.6143C11.6234 11.0862 11.3319 11.5653 11.0518 12.0509ZM11.952 19.3304C11.0181 19.2261 10.1374 19.0849 9.32407 18.9079C9.57584 18.0949 9.88603 17.2499 10.2483 16.3905C10.5062 16.8886 10.7758 17.3805 11.0568 17.866C11.3435 18.3611 11.642 18.8494 11.952 19.3304ZM16.1337 22.7868C15.5563 22.1638 14.9805 21.4747 14.418 20.7336C14.964 20.755 15.5206 20.7659 16.0864 20.7659C16.6676 20.7659 17.2422 20.7529 17.8077 20.7276C17.2524 21.4823 16.6917 22.1723 16.1337 22.7868ZM21.9479 16.3467C22.329 17.2154 22.6503 18.0559 22.9055 18.8551C22.0786 19.0438 21.186 19.1957 20.2455 19.3085C20.5469 18.8307 20.8387 18.3469 21.1209 17.8575C21.4077 17.3601 21.6835 16.8564 21.9479 16.3467ZM20.0656 17.249C19.6337 17.9994 19.1774 18.7355 18.6976 19.4562C17.8516 19.5166 16.9773 19.5478 16.0864 19.5478C15.1991 19.5478 14.3359 19.5202 13.5046 19.4663C13.0124 18.7472 12.5475 18.0099 12.111 17.2557C11.6766 16.5055 11.2708 15.7391 10.8945 14.9581C11.2698 14.1769 11.6744 13.4101 12.1074 12.6593V12.6596C12.5402 11.9086 13.0014 11.1744 13.49 10.4584C14.338 10.3943 15.2075 10.3607 16.0865 10.3607C16.9694 10.3607 17.84 10.3946 18.6878 10.4592C19.1714 11.174 19.6297 11.9057 20.0617 12.6529C20.4962 13.402 20.9062 14.165 21.291 14.9408C20.9101 15.7245 20.5014 16.4944 20.0658 17.249H20.0656ZM22.5786 3.64589C23.5334 4.19662 23.9048 6.41732 23.3049 9.32958C23.2656 9.5193 23.2228 9.70829 23.1767 9.89646C21.9937 9.6235 20.709 9.42032 19.364 9.29412C18.5804 8.17841 17.7686 7.1639 16.9536 6.28582C17.1672 6.07994 17.3858 5.87939 17.6093 5.68436C19.7146 3.85223 21.6821 3.12886 22.5786 3.64589Z" fill="#15161C"/>
<path d="M16.0854 12.3827C17.4917 12.3827 18.6316 13.5227 18.6316 14.9289C18.6316 16.3353 17.4917 17.4754 16.0854 17.4754C14.6791 17.4754 13.5391 16.3353 13.5391 14.9289C13.5391 13.5227 14.6791 12.3827 16.0854 12.3827Z" fill="#848484"/>
</svg>
