<svg width="31" height="22" viewBox="0 0 31 22" fill="none" xmlns="http://www.w3.org/2000/svg">
<path d="M6.2145 17.5288C5.36182 17.5288 4.58666 16.8358 4.58666 15.9889C4.58666 15.1419 5.2843 14.4489 6.2145 14.4489C7.1447 14.4489 7.84235 15.1419 7.84235 15.9889C7.84235 16.8358 7.06718 17.5288 6.2145 17.5288ZM26.2138 9.13598C26.0587 7.904 25.2836 6.90302 24.2759 6.13303L23.8883 5.82504L23.5782 6.21003C22.9581 6.90302 22.7255 8.135 22.803 9.05898C22.8806 9.75197 23.1131 10.445 23.5007 10.9839C23.1906 11.1379 22.803 11.2919 22.493 11.4459C21.7953 11.6769 21.0977 11.7539 20.4 11.7539H0.323245L0.245729 12.2159C0.0906956 13.6789 0.323245 15.2189 0.943378 16.6049L1.25344 17.1438V17.2208C3.11384 20.3008 6.44705 21.6868 10.0903 21.6868C17.0668 21.6868 22.803 18.6838 25.5161 12.2159C27.299 12.2929 29.0819 11.8309 29.9346 10.137L30.1671 9.75197L29.7795 9.52097C28.7718 8.90498 27.3765 8.82798 26.2138 9.13598ZM16.2141 7.904H13.191V10.9069H16.2141V7.904ZM16.2141 4.13106H13.191V7.13401H16.2141V4.13106ZM16.2141 0.281128H13.191V3.28408H16.2141V0.281128ZM19.9349 7.904H16.9118V10.9069H19.9349V7.904ZM8.69503 7.904H5.67189V10.9069H8.69503V7.904ZM12.4933 7.904H9.4702V10.9069H12.4933V7.904ZM4.97424 7.904H1.95109V10.9069H4.97424V7.904ZM12.4933 4.13106H9.4702V7.13401H12.4933V4.13106ZM8.69503 4.13106H5.67189V7.13401H8.69503V4.13106Z" fill="#848484"/>
</svg>
