<svg width="45" height="18" viewBox="0 0 45 18" fill="none" xmlns="http://www.w3.org/2000/svg">
<path d="M3.61154 5.93715C3.5258 5.93715 3.50436 5.89428 3.54724 5.82997L3.99738 5.25121C4.04025 5.18691 4.14743 5.14404 4.23317 5.14404H11.8856C11.9713 5.14404 11.9928 5.20834 11.9499 5.27265L11.5855 5.82997C11.5426 5.89428 11.4354 5.95858 11.3711 5.95858L3.61154 5.93715ZM0.374804 7.9092C0.289062 7.9092 0.267627 7.86633 0.310498 7.80202L0.76064 7.22327C0.803511 7.15896 0.910688 7.11609 0.996429 7.11609H10.7709C10.8567 7.11609 10.8996 7.1804 10.8781 7.2447L10.7066 7.75915C10.6852 7.84489 10.5995 7.88776 10.5137 7.88776L0.374804 7.9092ZM5.56216 9.88125C5.47642 9.88125 5.45498 9.81695 5.49785 9.75264L5.79795 9.21675C5.84082 9.15245 5.92656 9.08814 6.0123 9.08814H10.2994C10.3851 9.08814 10.428 9.15245 10.428 9.23819L10.3851 9.75264C10.3851 9.83838 10.2994 9.90269 10.2351 9.90269L5.56216 9.88125ZM27.8121 5.55131C26.4616 5.89428 25.5399 6.1515 24.2109 6.49447C23.8894 6.58021 23.8679 6.60164 23.5893 6.28011C23.2678 5.91571 23.032 5.67992 22.5818 5.46557C21.2314 4.80107 19.9238 4.99399 18.702 5.7871C17.2444 6.73025 16.4942 8.12355 16.5156 9.85982C16.5371 11.5746 17.716 12.9894 19.4094 13.2252C20.867 13.4181 22.0888 12.9036 23.0534 11.8104C23.2463 11.5746 23.4178 11.3174 23.6322 11.0173H19.4951C19.045 11.0173 18.9378 10.7387 19.0879 10.3743C19.3665 9.70977 19.881 8.59513 20.1811 8.03781C20.2454 7.9092 20.3954 7.69485 20.717 7.69485H28.5194C28.4765 8.2736 28.4765 8.85235 28.3908 9.43111C28.155 10.9745 27.5763 12.3892 26.6331 13.6324C25.0898 15.6688 23.0748 16.9335 20.524 17.2764C18.4234 17.5551 16.4728 17.1478 14.7579 15.8617C13.1717 14.6613 12.2714 13.0751 12.0356 11.1031C11.757 8.76661 12.4429 6.66595 13.8576 4.82251C15.3795 2.82902 17.3945 1.56433 19.8595 1.11419C21.8745 0.749792 23.8036 0.98558 25.5399 2.16452C26.676 2.91476 27.4905 3.94366 28.0264 5.18691C28.155 5.37983 28.0693 5.487 27.8121 5.55131Z" fill="#848484"/>
<path d="M34.9071 17.405C32.9565 17.3621 31.1774 16.8048 29.6769 15.5187C28.4122 14.4255 27.6191 13.0322 27.3619 11.3817C26.976 8.95947 27.6405 6.81593 29.0981 4.90819C30.6629 2.85039 32.5492 1.77863 35.1 1.32848C37.2864 0.942647 39.3442 1.157 41.2091 2.42169C42.9025 3.5792 43.9528 5.14398 44.2315 7.20177C44.5959 10.0955 43.7599 12.4534 41.7664 14.4684C40.3517 15.9045 38.6154 16.8048 36.6219 17.2121C36.0432 17.3193 35.4644 17.3407 34.9071 17.405ZM40.0087 8.74511C39.9873 8.46645 39.9873 8.2521 39.9444 8.03775C39.5586 5.91565 37.608 4.71527 35.5716 5.18685C33.5781 5.63699 32.292 6.90167 31.8204 8.9166C31.4346 10.5886 32.2491 12.2819 33.7925 12.9679C34.9714 13.4823 36.1504 13.418 37.2864 12.8393C38.9798 11.9604 39.9015 10.5886 40.0087 8.74511Z" fill="#848484"/>
</svg>
