<svg width="25" height="25" viewBox="0 0 25 25" fill="none" xmlns="http://www.w3.org/2000/svg">
<path d="M12.5 0C10.0277 0 7.61099 0.733112 5.55538 2.10663C3.49976 3.48015 1.89761 5.43238 0.951511 7.71646C0.00541607 10.0005 -0.242126 12.5139 0.24019 14.9386C0.722505 17.3634 1.91301 19.5907 3.66117 21.3388C5.40933 23.087 7.63661 24.2775 10.0614 24.7598C12.4861 25.2421 14.9995 24.9946 17.2835 24.0485C19.5676 23.1024 21.5199 21.5002 22.8934 19.4446C24.2669 17.389 25 14.9723 25 12.5C25 9.18479 23.683 6.00537 21.3388 3.66116C18.9946 1.31696 15.8152 0 12.5 0ZM15.3083 22.9611C16.2361 21.4833 16.9556 19.2917 17.3361 16.7056H22.4833C21.84 18.224 20.8597 19.5763 19.6166 20.6601C18.3736 21.7438 16.9003 22.5307 15.3083 22.9611ZM2.53056 16.7056H7.66389C8.04445 19.2917 8.775 21.4833 9.69167 22.9611C8.09968 22.5307 6.62642 21.7438 5.38337 20.6601C4.14032 19.5763 3.16003 18.224 2.51667 16.7056H2.53056ZM9.70556 2.03889C8.87222 3.37222 8.2 5.28611 7.8 7.54722H2.86945C3.56214 6.20594 4.52643 5.02353 5.70096 4.0752C6.87549 3.12687 8.23455 2.4334 9.69167 2.03889H9.70556ZM22.1306 7.54722H17.2222C16.8222 5.28611 16.1528 3.38055 15.3167 2.03889C16.7723 2.43443 18.1297 3.12838 19.3027 4.07666C20.4758 5.02494 21.4388 6.20682 22.1306 7.54722ZM12.5 23.3333C12.0139 23.3333 11.1528 22.5 10.4111 20.7055C9.90698 19.4171 9.5528 18.075 9.35556 16.7056H15.6444C15.4472 18.075 15.093 19.4171 14.5889 20.7055C13.8472 22.5 12.9861 23.3333 12.5 23.3333ZM12.5 1.66667C12.9861 1.66667 13.8472 2.5 14.5889 4.29444C15.0051 5.3453 15.3159 6.43491 15.5167 7.54722H9.48334C9.68412 6.43491 9.99491 5.3453 10.4111 4.29444C11.1528 2.5 12.0139 1.66667 12.5 1.66667ZM9.03334 12.5C9.03261 11.4017 9.09754 10.3044 9.22778 9.21389H15.7722C15.9025 10.3044 15.9674 11.4017 15.9667 12.5C15.9667 13.3583 15.925 14.2111 15.85 15.0389H9.15C9.075 14.2111 9.03334 13.3583 9.03334 12.5ZM7.47223 15.0389H1.96945C1.50259 13.1121 1.57467 11.0941 2.17778 9.20555H7.54723C7.42609 10.2995 7.36581 11.3994 7.36667 12.5C7.36667 13.3694 7.40278 14.2194 7.47223 15.0389ZM17.4528 9.20555H22.8222C23.4253 11.0941 23.4974 13.1121 23.0306 15.0389H17.5278C17.5972 14.2056 17.6333 13.3722 17.6333 12.5C17.6339 11.4021 17.5736 10.3051 17.4528 9.21389V9.20555Z" fill="white"/>
</svg>
