<svg width="20" height="14" viewBox="0 0 20 14" fill="none" xmlns="http://www.w3.org/2000/svg">
<path d="M1.53834 0C1.33414 0 1.13939 0.0405644 0.961417 0.11218L9.54322 7.75648C9.84235 8.02322 10.1743 8.02294 10.4727 7.75648L19.0385 0.11218C18.8605 0.0405644 18.6657 0 18.4615 0H1.53834ZM0.0158976 1.32211C0.00615396 1.39221 0 1.46562 0 1.53847V11.795C0 12.0054 0.044385 12.2056 0.120206 12.3879L6.04171 6.69878L0.0160257 1.32211H0.0158976ZM19.984 1.32211L13.9743 6.69078L19.8878 12.3799C19.9612 12.2001 20 12.0018 20 11.795V1.53847C20 1.46562 19.9936 1.39221 19.9841 1.32211H19.984ZM12.8205 7.72442L11.4984 8.91033C10.6578 9.6609 9.35798 9.65964 8.51757 8.91033L7.19543 7.73242L1.36206 13.3254C1.41906 13.3318 1.4796 13.3334 1.53834 13.3334H18.4615C18.5175 13.3334 18.5754 13.3308 18.6298 13.3254L12.8205 7.72442Z" fill="#10CC94"/>
</svg>
