<svg width="18" height="18" viewBox="0 0 18 18" fill="none" xmlns="http://www.w3.org/2000/svg">
<path d="M17.6207 15.6596L16.2311 17.0492C15.6152 17.665 14.7983 18 13.9447 18C13.8107 18 13.6767 17.9914 13.5405 17.9741C10.6425 17.6153 7.45052 15.8801 4.7837 13.2134C2.11689 10.5489 0.383674 7.3571 0.0249292 4.45921C-0.0982544 3.46083 0.238879 2.4819 0.952047 1.76877L2.34164 0.379254C2.84735 -0.126418 3.67073 -0.126418 4.17427 0.379254L7.23009 3.4349C7.47429 3.67909 7.61044 4.0054 7.61044 4.35116C7.61044 4.69692 7.47645 5.02323 7.23009 5.26742L5.54874 6.94868L11.0509 12.4506L12.7323 10.7693C13.238 10.2636 14.0592 10.2636 14.5649 10.7693L17.6207 13.825C18.1264 14.3306 18.1264 15.154 17.6207 15.6596Z" fill="#10CC94"/>
</svg>
