<svg width="1926" height="1000" viewBox="0 0 1926 1000" fill="none" xmlns="http://www.w3.org/2000/svg">
<line x1="700.5" y1="-2.18557e-08" x2="700.5" y2="1000" stroke="#1D2029"/>
<line x1="525.5" y1="-2.18557e-08" x2="525.5" y2="1000" stroke="#1D2029"/>
<line x1="175.5" y1="-2.18557e-08" x2="175.5" y2="1000" stroke="#1D2029"/>
<line x1="350.5" y1="-2.18557e-08" x2="350.5" y2="1000" stroke="#1D2029"/>
<line x1="0.5" y1="-2.18557e-08" x2="0.500044" y2="1000" stroke="#1D2029"/>
<line x1="875.5" y1="-2.18557e-08" x2="875.5" y2="1000" stroke="#1D2029"/>
<line x1="1050.5" y1="-2.18557e-08" x2="1050.5" y2="1000" stroke="#1D2029"/>
<line x1="1225.5" y1="-2.18557e-08" x2="1225.5" y2="1000" stroke="#1D2029"/>
<line x1="1400.5" y1="-2.18557e-08" x2="1400.5" y2="1000" stroke="#1D2029"/>
<line x1="1575.5" y1="-2.18557e-08" x2="1575.5" y2="1000" stroke="#1D2029"/>
<line x1="1750.5" y1="-2.18557e-08" x2="1750.5" y2="1000" stroke="#1D2029"/>
<line x1="1925.5" y1="-2.18557e-08" x2="1925.5" y2="1000" stroke="#1D2029"/>
</svg>
