<svg width="69" height="117" viewBox="0 0 69 117" fill="none" xmlns="http://www.w3.org/2000/svg">
<g opacity="0.5">
<g opacity="0.5">
<path opacity="0.5" d="M1.78516 40.0327V54.4727L0.535156 55.2027V55.8027L1.78516 55.0727V69.5227L0.535156 70.2427V70.8427L1.78516 70.1227V84.5627L0.535156 85.2927V85.8927L1.78516 85.1627V99.6127L0.535156 100.333V100.933L1.78516 100.213V114.653L0.535156 115.383V115.983L1.78516 115.253V116.703L2.30515 116.403V114.953L14.8152 107.733V109.183L15.3351 108.883V107.433L27.8452 100.213V101.663L28.3651 101.363V99.9127L40.8752 92.6827V94.1327L41.3951 93.8327V92.3927L53.9052 85.1627V86.6127L54.4252 86.3127V84.8627L66.9352 77.6427V79.0327L67.4552 78.7327V77.2827L68.7151 76.5627V75.9627L67.4552 76.6827V62.2427L68.7151 61.5227V60.9227L67.4552 61.6527V47.2027L68.7151 46.4827V45.8827L67.4552 46.6027V32.1527L68.7151 31.4327V30.8327L67.4552 31.5627V17.1127L68.7151 16.3827V15.7927L67.4552 16.5127V2.03271L68.7151 1.31271V0.712708L67.4552 1.44272V0.0327148L66.9352 0.332703V1.77271L54.4252 9.03271V7.5827L53.9052 7.88272V9.3327L41.3951 16.5527V15.0327L40.8752 15.3327V16.7827L28.3651 24.0327V22.5927L27.8452 22.8827V24.3327L15.3351 31.5627V30.1127L14.8152 30.4127V31.8627L2.30515 39.0827V37.6327L1.78516 37.9327V39.3827L0.535156 40.1027V40.7027L1.78516 40.0327ZM27.8452 24.9827V39.4327L15.3351 46.6527V32.1627L27.8452 24.9827ZM28.3651 54.1727V39.6827L40.8752 32.4527V46.9027L28.3651 54.1727ZM40.8752 47.5527V62.0027L28.3651 69.2227V54.7227L40.8752 47.5527ZM41.3951 32.2027L53.9052 24.9827V39.4327L41.3951 46.6527V32.2027ZM53.9052 40.0327V54.4727L41.3951 61.7027V47.2027L53.9052 40.0327ZM53.9052 55.0327V69.4827L41.3951 76.7027V62.2527L53.9052 55.0327ZM40.9052 77.0327L28.3951 84.2527V69.7727L40.9052 62.5427V77.0327ZM27.9052 84.5527L15.3951 91.7827V77.2927L27.8452 70.0327L27.9052 84.5527ZM15.3951 76.7327V62.2527L27.8452 55.0327V69.4827L15.3951 76.7327ZM15.3951 61.7327V47.2027L27.8452 40.0327V54.4727L15.3951 61.7327ZM40.9352 17.4927V31.9427L28.4252 39.1627V24.6327L40.9352 17.4927ZM53.9352 9.97272V24.3327L41.4252 31.5627V17.1127L53.9352 9.97272ZM66.9352 16.8927L54.4252 24.0327V9.59271L66.9352 2.3627V16.8927ZM66.9352 31.9427L54.4252 39.1627V24.6327L66.9352 17.4127V31.9427ZM66.9352 46.9427L54.4252 54.1627V39.6827L66.9352 32.4527V46.9427ZM66.9352 61.9927L54.4252 69.2127V54.7227L66.9352 47.5027V61.9927ZM54.4252 84.2527V69.7727L66.9352 62.5427V77.0327L54.4252 84.2527ZM41.4252 91.7827V77.2927L53.9052 70.0327V84.4727L41.4252 91.7827ZM28.4252 99.3027V84.8127L40.9352 77.5927V92.0327L28.4252 99.3027ZM15.4252 106.823V92.3427L27.9352 85.1127V99.5627L15.4252 106.823ZM2.42517 99.9027L14.9352 92.6727V107.123L2.42517 114.353V99.9027ZM2.42517 84.8527L14.9352 77.6327V92.0327L2.42517 99.2527V84.8527ZM2.42517 69.8527L14.9352 62.6227V77.0327L2.42517 84.2527V69.8527ZM2.42517 54.8027L14.9352 47.5827V62.0327L2.42517 69.2527V54.8027ZM2.42517 39.8027L14.9352 32.5727V47.0227L2.42517 54.2427V39.8027Z" fill="url(#paint0_linear)"/>
</g>
</g>
<defs>
<linearGradient id="paint0_linear" x1="131859" y1="51301" x2="136704" y2="47705.8" gradientUnits="userSpaceOnUse">
<stop stop-color="#15161C"/>
<stop offset="0.18" stop-color="#101825"/>
<stop offset="0.48" stop-color="#0B1A2D"/>
<stop offset="1" stop-color="#0A1B30"/>
</linearGradient>
</defs>
</svg>
