<svg width="69" height="119" viewBox="0 0 69 119" fill="none" xmlns="http://www.w3.org/2000/svg">
<g opacity="0.5">
<g opacity="0.5">
<path opacity="0.5" d="M68.8035 41.5625V40.9525L67.5435 40.2225V38.7625L67.0135 38.4625V39.9225L54.4035 32.6425V31.1825L53.8835 30.8725V32.3425L41.2635 25.0325V23.5725L40.7435 23.2725V24.7325L28.1235 17.4525V16.0325L27.6035 15.7325V17.1925L15.0335 9.88248V8.42249L14.5035 8.12247V9.58246L1.89351 2.30246V0.842468L1.3735 0.54248V2.03247L0.103516 1.30246V1.90247L1.3735 2.63248V17.2025L0.103516 16.4725V17.0725L1.3735 17.8025V32.3725L0.103516 31.6325V32.2425L1.3735 32.9725V47.5325L0.103516 46.8025V47.4125L1.3735 48.1425V62.7025L0.103516 61.9725V62.5825L1.3735 63.3125V77.8725L0.103516 77.1425V77.7525L1.3735 78.4825V79.9425L1.89351 80.2425V78.7825L14.4635 86.0325V87.4925L14.9935 87.7925V86.3325L27.6035 93.6225V95.0825L28.1235 95.3825V93.9225L40.7435 101.202V102.662L41.2635 102.962V101.502L53.8835 108.792V110.252L54.4035 110.552V109.092L67.0335 116.372V117.832L67.5635 118.132V116.672L68.8235 117.402V116.802L67.5635 116.072V101.502L68.8235 102.232V101.632L67.5635 100.902V86.3325L68.8235 87.0625V86.4625L67.5635 85.7325V71.1625L68.8235 71.8925V71.2925L67.5635 70.5625V56.0325L68.8235 56.7725V56.1625L67.5635 55.4325V40.8325L68.8035 41.5625ZM53.8835 32.9425V47.5125L41.2635 40.2225V25.6625L53.8835 32.9425ZM28.1235 47.8125V33.2425L40.7435 40.5225V55.0925L28.1235 47.8125ZM40.7435 55.6925V70.2625L28.1235 63.0325V48.4125L40.7435 55.6925ZM27.6035 47.5125L15.0335 40.2225V25.6625L27.6435 32.9425L27.6035 47.5125ZM27.6035 48.1125V62.6725L15.0335 55.3925V40.8225L27.6035 48.1125ZM27.6035 63.2825V77.8425L15.0335 70.5625V56.0325L27.6035 63.2825ZM28.1235 63.5825L40.7435 70.8625V85.4325L28.1235 78.1425V63.5825ZM41.2635 71.1625L53.8835 78.4525V93.0325L41.2635 85.7525V71.1625ZM41.2635 70.5625V56.0325L53.8835 63.3225V77.8825L41.2635 70.5625ZM41.2635 55.3925V40.8325L53.8835 48.1125V62.6725L41.2635 55.3925ZM40.7435 25.3925V39.9625L28.1235 32.6825V18.0325L40.7435 25.3925ZM27.6035 17.8125V32.3825L15.0335 25.0325V10.4925L27.6035 17.8125ZM1.85352 2.94247L14.4635 10.2225V24.7925L1.85352 17.5125V2.94247ZM1.85352 18.1125L14.4635 25.3925V39.9625L1.85352 32.6825V18.1125ZM1.85352 33.2825L14.4635 40.5625V55.1325L1.85352 47.8525V33.2825ZM1.85352 48.4525L14.4635 55.7325V70.3025L1.85352 63.0325V48.4525ZM1.85352 78.1825V63.5825L14.4635 70.8625V85.4325L1.85352 78.1825ZM15.0335 85.7325V71.1625L27.6435 78.4525V93.0325L15.0335 85.7325ZM28.1635 93.3125V78.7525L40.7435 86.0325V100.602L28.1635 93.3125ZM41.3035 100.902V86.3325L53.9235 93.6225V108.182L41.3035 100.902ZM67.0335 115.772L54.4235 108.482V93.9225L67.0335 101.202V115.772ZM67.0335 100.602L54.4235 93.3125V78.7525L67.0335 86.0325V100.602ZM67.0335 85.4325L54.4235 78.1525V63.5825L67.0335 70.8625V85.4325ZM67.0335 70.2625L54.4035 63.0325V48.4125L67.0335 55.6925V70.2625ZM67.0335 55.0925L54.4235 47.8125V33.2425L67.0335 40.5225V55.0925Z" fill="url(#paint0_linear)"/>
</g>
</g>
<defs>
<linearGradient id="paint0_linear" x1="-40133.8" y1="51730.7" x2="-35210.2" y2="48077.4" gradientUnits="userSpaceOnUse">
<stop stop-color="#15161C"/>
<stop offset="0.18" stop-color="#101826"/>
<stop offset="0.46" stop-color="#0B1A2E"/>
<stop offset="1" stop-color="#0A1B30"/>
</linearGradient>
</defs>
</svg>
