<svg width="38" height="54" viewBox="0 0 38 54" fill="none" xmlns="http://www.w3.org/2000/svg">
<path fill-rule="evenodd" clip-rule="evenodd" d="M16.9972 1.02462L0.483447 23.1207C-0.832867 24.9027 0.722777 27.3974 2.93658 26.9816L11.5524 25.259L11.5524 35.9492C11.5524 37.0778 12.4499 37.9688 13.5868 37.9688H24.3566C25.4934 37.9688 26.3909 37.0778 26.3909 35.9492V25.259L35.0068 26.9816C37.2206 27.3974 38.836 24.9027 37.4599 23.1207L20.9461 1.02462C19.9888 -0.341539 17.9545 -0.341539 16.9972 1.02462ZM11.8125 42.5C11.8125 41.3954 12.7079 40.5 13.8125 40.5H24.1563C25.2608 40.5 26.1563 41.3954 26.1563 42.5V44.4062C26.1563 45.5108 25.2608 46.4062 24.1563 46.4062H13.8125C12.7079 46.4062 11.8125 45.5108 11.8125 44.4062V42.5ZM13.8125 48.9375C12.7079 48.9375 11.8125 49.8329 11.8125 50.9375V52C11.8125 53.1046 12.7079 54 13.8125 54H24.1563C25.2608 54 26.1563 53.1046 26.1563 52V50.9375C26.1563 49.8329 25.2608 48.9375 24.1563 48.9375H13.8125Z" fill="url(#paint0_linear)"/>
<defs>
<linearGradient id="paint0_linear" x1="36.5861" y1="5.45956" x2="-0.981479" y2="29.986" gradientUnits="userSpaceOnUse">
<stop stop-color="#12CC92"/>
<stop offset="1" stop-color="#74CC60"/>
<stop offset="1" stop-color="#74CC60"/>
</linearGradient>
</defs>
</svg>
