<svg width="59" height="46" viewBox="0 0 59 46" fill="none" xmlns="http://www.w3.org/2000/svg">
<path d="M57.8992 24.2195C57.3413 23.5376 56.4734 22.4837 55.3576 21.3059L57.5272 17.3385C58.0232 16.4706 57.6513 15.3548 56.7834 14.8589C55.9155 14.3629 54.7997 14.7349 54.3038 15.6028L52.63 18.7023C51.2662 17.5245 49.7164 16.3466 47.9187 15.1688L50.0264 9.71366C50.3983 8.7838 49.9024 7.72997 48.9725 7.35802C48.0427 6.98608 46.9889 7.48201 46.6169 8.41187L44.6952 13.3711C43.1455 12.5652 41.4097 11.8834 39.612 11.3254L40.9758 4.75441C41.1618 3.76256 40.5418 2.83271 39.55 2.58474C38.5581 2.39877 37.6283 3.01867 37.3803 4.01052L36.0165 10.4576C34.5288 10.1476 32.979 9.96163 31.3052 9.83765V2.3368C31.3052 1.34495 30.4994 0.539062 29.5075 0.539062C28.5157 0.539062 27.7098 1.34495 27.7098 2.3368V9.83765C26.098 9.89964 24.4863 10.1476 22.9985 10.3956L21.6967 4.01052C21.5107 3.01867 20.5189 2.39877 19.589 2.58474C18.5972 2.77072 17.9773 3.76256 18.1632 4.75441L19.527 11.3254C17.7293 11.8834 15.9936 12.5652 14.4438 13.3711L12.5221 8.47385C12.1502 7.54399 11.0963 7.11005 10.1665 7.42C9.23662 7.79194 8.80267 8.84581 9.11263 9.77567L11.2203 15.1688C9.4226 16.2847 7.87281 17.5245 6.50902 18.6403L4.89728 15.6028C4.40135 14.7349 3.34751 14.4249 2.41765 14.8589C1.54979 15.3548 1.23983 16.4086 1.67376 17.3385L3.78145 21.1819C2.60363 22.4217 1.67375 23.4756 1.11583 24.2195C-0.371943 26.1412 -0.371943 28.8068 1.11583 30.7285C3.71943 34.076 13.328 44.9863 29.0116 45.1723C29.1356 45.1723 29.3215 45.1723 29.4455 45.1723C29.5695 45.1723 29.7555 45.1723 29.8795 45.1723C45.5631 44.9863 55.1716 34.076 57.7752 30.7285C59.387 28.8068 59.387 26.1412 57.8992 24.2195ZM4.09141 28.4968C3.59548 27.8769 3.59548 27.009 4.09141 26.4511C5.57918 24.4674 9.42258 20.1281 15.3117 16.9666C13.142 19.8801 11.8402 23.5376 11.8402 27.443C11.8402 31.3484 13.142 35.0058 15.3117 37.9194C9.42258 34.8199 5.64117 30.4805 4.09141 28.4968ZM30.0035 41.5768C29.8795 41.5768 29.6935 41.5768 29.5695 41.5768C29.4455 41.5768 29.2596 41.5768 29.1356 41.5768C21.5727 41.3288 15.4976 35.1298 15.4976 27.505C15.4976 19.8801 21.5107 13.6811 29.0736 13.4331C29.2596 13.4331 29.4455 13.4331 29.5695 13.4331C29.6935 13.4331 29.9414 13.4331 30.0654 13.4331C37.6283 13.6811 43.6414 19.8801 43.6414 27.505C43.6414 35.1298 37.5663 41.3288 30.0035 41.5768ZM55.0476 28.4968C53.5598 30.4805 49.7164 34.8199 43.8273 37.9814C45.997 35.0678 47.2988 31.4104 47.2988 27.505C47.2988 23.5996 45.997 19.9421 43.8273 17.0285C49.7164 20.1901 53.5598 24.5294 55.0476 26.5131C55.4816 27.071 55.4816 27.8769 55.0476 28.4968Z" fill="url(#paint0_linear)"/>
<path d="M29.5693 18.7644C28.3915 18.7644 27.2756 19.0124 26.2218 19.4463C27.2756 20.0042 27.9576 21.182 27.9576 22.4218C27.9576 24.3435 26.4078 25.8313 24.5481 25.8313C23.2463 25.8313 22.1304 25.1494 21.5725 24.0956C21.1386 25.1494 20.8906 26.2653 20.8906 27.4431C20.8906 32.2164 24.796 36.1218 29.5693 36.1218C34.3426 36.1218 38.248 32.2164 38.248 27.4431C38.248 22.6698 34.3426 18.7644 29.5693 18.7644Z" fill="url(#paint1_linear)"/>
<defs>
<linearGradient id="paint0_linear" x1="56.8515" y1="4.91487" x2="24.855" y2="45.4143" gradientUnits="userSpaceOnUse">
<stop stop-color="#12CC92"/>
<stop offset="1" stop-color="#74CC60"/>
<stop offset="1" stop-color="#74CC60"/>
</linearGradient>
<linearGradient id="paint1_linear" x1="37.6159" y1="20.4661" x2="24.8377" y2="32.7016" gradientUnits="userSpaceOnUse">
<stop stop-color="#12CC92"/>
<stop offset="1" stop-color="#74CC60"/>
<stop offset="1" stop-color="#74CC60"/>
</linearGradient>
</defs>
</svg>
