<svg width="59" height="45" viewBox="0 0 59 45" fill="none" xmlns="http://www.w3.org/2000/svg">
<path d="M57.8992 23.6804C57.3413 22.9985 56.4734 21.9447 55.3576 20.7668L57.5272 16.7994C58.0232 15.9316 57.6513 14.8157 56.7834 14.3198C55.9155 13.8239 54.7997 14.1958 54.3038 15.0637L52.63 18.1632C51.2662 16.9854 49.7164 15.8076 47.9187 14.6298L50.0264 9.1746C50.3983 8.24474 49.9024 7.19091 48.9725 6.81896C48.0427 6.44702 46.9889 6.94295 46.6169 7.87281L44.6952 12.8321C43.1455 12.0262 41.4097 11.3443 39.612 10.7864L40.9758 4.21535C41.1618 3.2235 40.5418 2.29364 39.55 2.04568C38.5581 1.85971 37.6283 2.47961 37.3803 3.47146L36.0165 9.91849C34.5288 9.60854 32.979 9.42257 31.3052 9.29858V1.79774C31.3052 0.805892 30.4994 0 29.5075 0C28.5157 0 27.7098 0.805892 27.7098 1.79774V9.29858C26.098 9.36058 24.4863 9.60855 22.9985 9.85651L21.6967 3.47146C21.5107 2.47961 20.5189 1.85971 19.589 2.04568C18.5972 2.23165 17.9773 3.2235 18.1632 4.21535L19.527 10.7864C17.7293 11.3443 15.9936 12.0262 14.4438 12.8321L12.5221 7.93478C12.1502 7.00493 11.0963 6.57098 10.1665 6.88094C9.23662 7.25288 8.80267 8.30675 9.11263 9.23661L11.2203 14.6298C9.4226 15.7456 7.87281 16.9854 6.50902 18.1013L4.89728 15.0637C4.40135 14.1958 3.34751 13.8859 2.41765 14.3198C1.54979 14.8157 1.23983 15.8696 1.67376 16.7994L3.78145 20.6429C2.60363 21.8827 1.67375 22.9365 1.11583 23.6804C-0.371943 25.6021 -0.371943 28.2677 1.11583 30.1894C3.71943 33.5369 13.328 44.4472 29.0116 44.6332C29.1356 44.6332 29.3215 44.6332 29.4455 44.6332C29.5695 44.6332 29.7555 44.6332 29.8795 44.6332C45.5631 44.4472 55.1716 33.5369 57.7752 30.1894C59.387 28.2677 59.387 25.6021 57.8992 23.6804ZM4.09141 27.9577C3.59548 27.3378 3.59548 26.47 4.09141 25.912C5.57918 23.9284 9.42258 19.589 15.3117 16.4275C13.142 19.3411 11.8402 22.9985 11.8402 26.9039C11.8402 30.8093 13.142 34.4668 15.3117 37.3803C9.42258 34.2808 5.64117 29.9414 4.09141 27.9577ZM30.0035 41.0377C29.8795 41.0377 29.6935 41.0377 29.5695 41.0377C29.4455 41.0377 29.2596 41.0377 29.1356 41.0377C21.5727 40.7898 15.4976 34.5907 15.4976 26.9659C15.4976 19.3411 21.5107 13.142 29.0736 12.894C29.2596 12.894 29.4455 12.894 29.5695 12.894C29.6935 12.894 29.9414 12.894 30.0654 12.894C37.6283 13.142 43.6414 19.3411 43.6414 26.9659C43.6414 34.5907 37.5663 40.7898 30.0035 41.0377ZM55.0476 27.9577C53.5598 29.9414 49.7164 34.2808 43.8273 37.4423C45.997 34.5288 47.2988 30.8713 47.2988 26.9659C47.2988 23.0605 45.997 19.403 43.8273 16.4895C49.7164 19.651 53.5598 23.9904 55.0476 25.9741C55.4816 26.532 55.4816 27.3378 55.0476 27.9577Z" fill="url(#paint0_linear)"/>
<defs>
<linearGradient id="paint0_linear" x1="56.8515" y1="4.37581" x2="24.855" y2="44.8752" gradientUnits="userSpaceOnUse">
<stop stop-color="#12CC92"/>
<stop offset="1" stop-color="#74CC60"/>
<stop offset="1" stop-color="#74CC60"/>
</linearGradient>
</defs>
</svg>
