<svg width="49" height="55" viewBox="0 0 49 55" fill="none" xmlns="http://www.w3.org/2000/svg">
<path d="M24.0625 0C23.4297 0 22.9167 0.51299 22.9167 1.14583V5.72917C22.9167 6.36201 23.4297 6.875 24.0625 6.875C24.6953 6.875 25.2083 6.36201 25.2083 5.72917V1.14583C25.2083 0.51299 24.6953 0 24.0625 0ZM7.85973 6.7139C7.56645 6.7139 7.27782 6.83026 7.05404 7.05404C6.60659 7.50148 6.60659 8.21786 7.05404 8.66537L10.2946 11.9059C10.742 12.3534 11.4584 12.3534 11.9059 11.9059C12.3534 11.4585 12.3534 10.7421 11.9059 10.2946L8.66537 7.05404C8.44164 6.83026 8.15289 6.7139 7.85973 6.7139ZM40.2653 6.7139C39.9721 6.7139 39.6834 6.83026 39.4596 7.05404L36.2191 10.2946C35.7716 10.7421 35.7716 11.4585 36.2191 11.9059C36.6666 12.3534 37.383 12.3534 37.8304 11.9059L41.071 8.66537C41.5184 8.21786 41.5184 7.50148 41.071 7.05404C40.8472 6.83026 40.5586 6.7139 40.2653 6.7139ZM24.0625 10.3125C17.0757 10.3125 10.3125 15.7331 10.3125 23.4001C10.3125 32.7815 16.9343 35.1675 17.6888 41.25H30.4362C31.1907 35.1675 37.8125 32.7815 37.8125 23.4001C37.8125 15.7331 31.0493 10.3125 24.0625 10.3125ZM22.7913 13.2487C23.5381 13.2132 24.1714 13.5927 24.152 14.3408C24.1709 14.9407 23.6419 15.5037 23.042 15.5225C18.7679 16.0209 15.4688 19.6433 15.4688 24.0625C15.4688 24.9426 15.5995 25.7878 15.8447 26.5869C16.0834 27.1751 15.7181 27.9245 15.1107 28.1087C14.5033 28.2929 13.7887 27.871 13.6605 27.2493C13.3497 26.238 13.1771 25.1752 13.1771 24.0625C13.1771 18.4953 17.3821 13.8797 22.7913 13.2487ZM1.14583 22.9167C0.51299 22.9167 0 23.4297 0 24.0625C0 24.6953 0.51299 25.2083 1.14583 25.2083H5.72917C6.36201 25.2083 6.875 24.6953 6.875 24.0625C6.875 23.4297 6.36201 22.9167 5.72917 22.9167H1.14583ZM42.3958 22.9167C41.763 22.9167 41.25 23.4297 41.25 24.0625C41.25 24.6953 41.763 25.2083 42.3958 25.2083H46.9792C47.612 25.2083 48.125 24.6953 48.125 24.0625C48.125 23.4297 47.612 22.9167 46.9792 22.9167H42.3958ZM17.7604 43.5417V45.8333H30.3646V43.5417H17.7604ZM17.7604 48.125V49.2708C17.7604 50.5875 18.8429 51.5625 20.0521 51.5625H28.0729C29.2821 51.5625 30.3646 50.5875 30.3646 49.2708V48.125H17.7604ZM21.7708 52.7083C21.7708 53.9779 22.7929 55 24.0625 55C25.3321 55 26.3542 53.9779 26.3542 52.7083H21.7708Z" fill="url(#paint0_linear)"/>
<defs>
<linearGradient id="paint0_linear" x1="46.3726" y1="5.39216" x2="6.47059" y2="38.8235" gradientUnits="userSpaceOnUse">
<stop stop-color="#12CC92"/>
<stop offset="1" stop-color="#74CC60"/>
<stop offset="1" stop-color="#74CC60"/>
</linearGradient>
</defs>
</svg>
