<svg width="125" height="124" viewBox="0 0 125 124" fill="none" xmlns="http://www.w3.org/2000/svg">
<path fill-rule="evenodd" clip-rule="evenodd" d="M14.143 71.867C17.4756 96.4953 40.1425 113.759 64.7709 110.426C89.3992 107.093 106.663 84.4266 103.33 59.7982C99.9974 35.1699 77.3305 17.9064 52.7022 21.239C28.0738 24.5717 10.8103 47.2386 14.143 71.867ZM9.18812 72.5375C12.8911 99.9023 38.0766 119.084 65.4414 115.381C92.8062 111.678 111.988 86.4926 108.285 59.1278C104.582 31.7629 79.3965 12.5812 52.0317 16.2842C24.6668 19.9872 5.48513 45.1726 9.18812 72.5375Z" fill="white"/>
<path fill-rule="evenodd" clip-rule="evenodd" d="M100.102 99.762C109.195 88.6715 113.828 73.9861 111.754 58.6583L116.709 57.9878C118.977 74.748 113.905 90.8129 103.969 102.932C94.9233 113.965 81.8373 121.74 66.582 123.804L65.9115 118.849C79.8654 116.961 91.8264 109.856 100.102 99.762Z" fill="#2D9662"/>
<path fill-rule="evenodd" clip-rule="evenodd" d="M27.7258 22.7164C16.0725 31.0757 7.79625 44.0614 5.83259 59.4038L0.873047 58.769C3.02021 41.993 12.0773 27.7882 24.8115 18.6536C36.4044 10.3375 51.0567 6.21481 66.3265 8.16918L65.6917 13.1287C51.7246 11.3411 38.3323 15.108 27.7258 22.7164Z" fill="#2D9662"/>
</svg>
