<svg width="200" height="55" viewBox="0 0 200 55" fill="none" xmlns="http://www.w3.org/2000/svg">
<path d="M34.0905 27.1631C33.3063 26.591 32.8534 26.1942 32.3376 25.9019C27.9764 23.4169 23.6152 20.9403 19.2372 18.4846C17.3795 17.4447 16.6708 17.8206 16.654 19.9422C16.6162 25.6471 16.5366 31.3604 16.6749 37.0612C16.8217 43.0209 21.7113 45.627 26.8945 42.6367C31.1215 40.1977 35.3443 37.7503 39.542 35.2695C46.0209 31.4398 45.9916 22.8155 39.4959 19.0944C33.5705 15.6989 27.6325 12.3244 21.7029 8.92901C15.3456 5.27884 7.69671 9.60559 7.66316 16.9059C7.63381 23.0327 7.65478 29.1553 7.65897 35.2821C7.66316 45.13 10.9718 50.0748 20.0884 53.8628C16.5995 55.2912 10.9089 54.1719 6.90414 51.144C2.47164 47.7862 0.0310317 43.355 0.0226448 37.7294C0.0100643 30.7674 -0.0234835 23.8095 0.0268383 16.8475C0.123288 3.79622 13.8737 -4.13893 25.3051 2.25513C31.327 5.62548 37.3278 9.03342 43.3119 12.4664C54.4456 18.8521 54.8314 34.618 43.9745 41.4297C39.7265 44.0942 35.3821 46.6251 30.9789 49.0266C21.9713 53.938 11.3325 47.9741 10.9928 37.7837C10.7663 30.972 10.7873 24.1478 10.8125 17.3277C10.8292 12.3495 15.5888 9.64735 19.9752 12.0905C25.9425 15.415 31.8763 18.7978 37.7975 22.2058C41.6597 24.4276 41.7729 29.6899 37.9736 32.0119C34.1114 34.3758 30.1612 36.606 26.2277 38.8487C24.458 39.8552 22.7303 39.471 21.8581 37.9884C20.9691 36.4765 21.4555 34.7851 23.1874 33.7493C26.1187 31.9952 29.0876 30.308 32.0315 28.5748C32.6521 28.2031 33.2266 27.7562 34.0905 27.1631Z" fill="url(#paint0_linear)"/>
<path d="M68.3428 44.0985H65.457V38.1942H68.1863C69.351 38.1942 70.2058 38.4314 70.7505 38.9058C71.2952 39.3745 71.5675 40.1059 71.5675 41.0998C71.5675 42.1276 71.3067 42.8843 70.7852 43.37C70.2637 43.8557 69.4496 44.0985 68.3428 44.0985ZM66.9086 39.4141V42.8787H68.3167C68.9541 42.8787 69.4119 42.7403 69.69 42.4636C69.974 42.1869 70.1159 41.7323 70.1159 41.0998C70.1159 40.5012 69.9682 40.072 69.6726 39.8122C69.3771 39.5468 68.8904 39.4141 68.2124 39.4141H66.9086Z" fill="white"/>
<path d="M77.8727 41.8537V42.1925H74.3959C74.4249 42.5653 74.5205 42.8307 74.6828 42.9888C74.845 43.1413 75.1029 43.2175 75.4564 43.2175C75.7809 43.2175 76.0213 43.178 76.1778 43.0989C76.3342 43.0142 76.427 42.8815 76.4559 42.7008H77.7945C77.725 43.7173 76.9369 44.2256 75.4303 44.2256C74.5843 44.2256 73.9613 44.0336 73.5615 43.6496C73.1675 43.2599 72.9704 42.6556 72.9704 41.8368C72.9704 41.0348 73.1675 40.4475 73.5615 40.0748C73.9555 39.6964 74.5756 39.5072 75.4216 39.5072C76.2734 39.5072 76.8934 39.6908 77.2817 40.0579C77.6757 40.4249 77.8727 41.0235 77.8727 41.8537ZM75.4303 40.5153C75.0942 40.5153 74.8479 40.5802 74.6915 40.7101C74.5408 40.84 74.4452 41.0631 74.4046 41.3793H76.4472C76.4357 41.0687 76.3487 40.8485 76.1865 40.7186C76.03 40.5831 75.778 40.5153 75.4303 40.5153Z" fill="white"/>
<path d="M81.3659 42.9973L82.1221 39.6343H83.565L82.4785 44.0985H80.0795L78.993 39.6343H80.4445L81.1921 42.9973H81.3659Z" fill="white"/>
<path d="M89.5937 41.8537V42.1925H86.1169C86.1459 42.5653 86.2415 42.8307 86.4037 42.9888C86.566 43.1413 86.8238 43.2175 87.1773 43.2175C87.5018 43.2175 87.7423 43.178 87.8987 43.0989C88.0552 43.0142 88.1479 42.8815 88.1769 42.7008H89.5155C89.4459 43.7173 88.6578 44.2256 87.1512 44.2256C86.3052 44.2256 85.6823 44.0336 85.2825 43.6496C84.8884 43.2599 84.6914 42.6556 84.6914 41.8368C84.6914 41.0348 84.8884 40.4475 85.2825 40.0748C85.6765 39.6964 86.2965 39.5072 87.1425 39.5072C87.9944 39.5072 88.6144 39.6908 89.0026 40.0579C89.3967 40.4249 89.5937 41.0235 89.5937 41.8537ZM87.1512 40.5153C86.8151 40.5153 86.5689 40.5802 86.4124 40.7101C86.2617 40.84 86.1661 41.0631 86.1256 41.3793H88.1682C88.1566 41.0687 88.0697 40.8485 87.9074 40.7186C87.751 40.5831 87.4989 40.5153 87.1512 40.5153Z" fill="white"/>
<path d="M92.572 44.0985H91.1552V37.6606H92.572V44.0985Z" fill="white"/>
<path d="M96.6669 44.2256C95.7861 44.2256 95.1429 44.0364 94.7372 43.658C94.3374 43.2797 94.1375 42.6782 94.1375 41.8537C94.1375 41.0518 94.3403 40.4616 94.7459 40.0833C95.1574 39.6992 95.7977 39.5072 96.6669 39.5072C97.5303 39.5072 98.1648 39.6992 98.5704 40.0833C98.976 40.4616 99.1788 41.0518 99.1788 41.8537C99.1788 42.6782 98.9789 43.2797 98.5791 43.658C98.1793 44.0364 97.5419 44.2256 96.6669 44.2256ZM97.7621 41.8537C97.7621 41.3906 97.6809 41.0687 97.5187 40.888C97.3622 40.7017 97.0783 40.6085 96.6669 40.6085C96.2554 40.6085 95.9686 40.7017 95.8064 40.888C95.6441 41.0744 95.563 41.3963 95.563 41.8537C95.563 42.3281 95.6441 42.6585 95.8064 42.8448C95.9686 43.0312 96.2554 43.1244 96.6669 43.1244C97.0783 43.1244 97.3622 43.0312 97.5187 42.8448C97.6809 42.6585 97.7621 42.3281 97.7621 41.8537Z" fill="white"/>
<path d="M103.753 39.5072C104.437 39.5072 104.941 39.6964 105.265 40.0748C105.59 40.4532 105.752 41.0461 105.752 41.8537C105.752 42.6669 105.59 43.2655 105.265 43.6496C104.941 44.0336 104.437 44.2256 103.753 44.2256C102.982 44.2256 102.452 43.9404 102.162 43.37V45.9621H100.746V39.6343H102.162V40.3459C102.446 39.7868 102.977 39.5072 103.753 39.5072ZM103.284 43.1498C103.666 43.1498 103.936 43.0509 104.092 42.8533C104.254 42.6556 104.335 42.3253 104.335 41.8622C104.335 41.3991 104.254 41.0716 104.092 40.8795C103.936 40.6875 103.669 40.5915 103.292 40.5915C102.504 40.5915 102.11 40.9614 102.11 41.7012V41.9892C102.11 42.3507 102.212 42.6359 102.414 42.8448C102.623 43.0481 102.913 43.1498 103.284 43.1498Z" fill="white"/>
<path d="M112.921 39.5072C113.413 39.5072 113.758 39.6456 113.955 39.9223C114.152 40.1877 114.251 40.6565 114.251 41.3285V44.0985H112.834V41.4132C112.834 40.8654 112.625 40.5915 112.208 40.5915C111.733 40.5915 111.495 40.8965 111.495 41.5064V44.0985H110.078V41.4132C110.078 40.8654 109.873 40.5915 109.461 40.5915C109.004 40.5915 108.766 40.8795 108.749 41.4556V44.0985H107.332V39.6343H108.749V40.4221C109.027 39.8122 109.496 39.5072 110.157 39.5072C110.528 39.5072 110.811 39.5863 111.009 39.7444C111.211 39.8969 111.35 40.151 111.426 40.5068C111.692 39.8404 112.191 39.5072 112.921 39.5072Z" fill="white"/>
<path d="M120.683 41.8537V42.1925H117.206C117.235 42.5653 117.331 42.8307 117.493 42.9888C117.655 43.1413 117.913 43.2175 118.266 43.2175C118.591 43.2175 118.831 43.178 118.988 43.0989C119.144 43.0142 119.237 42.8815 119.266 42.7008H120.605C120.535 43.7173 119.747 44.2256 118.24 44.2256C117.394 44.2256 116.771 44.0336 116.372 43.6496C115.978 43.2599 115.781 42.6556 115.781 41.8368C115.781 41.0348 115.978 40.4475 116.372 40.0748C116.766 39.6964 117.386 39.5072 118.232 39.5072C119.084 39.5072 119.704 39.6908 120.092 40.0579C120.486 40.4249 120.683 41.0235 120.683 41.8537ZM118.24 40.5153C117.904 40.5153 117.658 40.5802 117.502 40.7101C117.351 40.84 117.255 41.0631 117.215 41.3793H119.257C119.246 41.0687 119.159 40.8485 118.997 40.7186C118.84 40.5831 118.588 40.5153 118.24 40.5153Z" fill="white"/>
<path d="M125.113 39.5072C125.64 39.5072 126.011 39.6456 126.225 39.9223C126.445 40.1934 126.556 40.6593 126.556 41.32V44.0985H125.139V41.3624C125.139 40.8372 124.898 40.5746 124.417 40.5746C124.174 40.5746 123.986 40.6621 123.852 40.8372C123.725 41.0123 123.661 41.2636 123.661 41.5911V44.0985H122.244V39.6343H123.661V40.3713C123.945 39.7953 124.429 39.5072 125.113 39.5072Z" fill="white"/>
<path d="M131.364 39.6343V40.7271H130.034V42.3366C130.034 42.6133 130.08 42.8138 130.173 42.938C130.272 43.0566 130.434 43.1159 130.66 43.1159C130.886 43.1159 131.12 43.0538 131.364 42.9295V44.0053C131.126 44.1522 130.808 44.2256 130.408 44.2256C129.77 44.2256 129.31 44.0759 129.026 43.7766C128.748 43.4773 128.609 42.9973 128.609 42.3366V40.7271H127.896V39.6343H128.609V38.5077H130.034V39.6343H131.364Z" fill="white"/>
<path d="M140.68 42.7262L142.166 44.0985H140.41L139.862 43.6072C139.329 44.0195 138.695 44.2256 137.959 44.2256C137.252 44.2256 136.704 44.059 136.316 43.7258C135.928 43.3926 135.734 42.9211 135.734 42.3111C135.734 41.5431 136.116 40.9021 136.881 40.3882C136.87 40.2188 136.864 40.1143 136.864 40.0748C136.864 39.4254 137.052 38.9284 137.429 38.5839C137.805 38.2394 138.344 38.0672 139.045 38.0672C139.573 38.0672 140.007 38.1321 140.349 38.262C141.021 38.5105 141.398 39.0922 141.479 40.007H140.062C139.999 39.4875 139.686 39.2277 139.124 39.2277C138.533 39.2277 138.237 39.479 138.237 39.9816C138.237 40.1793 138.269 40.343 138.333 40.4729C138.402 40.5972 138.524 40.7384 138.698 40.8965L139.697 41.8198C139.889 41.5431 140.01 41.2156 140.062 40.8372H141.479C141.392 41.4923 141.126 42.122 140.68 42.7262ZM137.976 43.0651C138.312 43.0651 138.617 42.9578 138.889 42.7432L137.559 41.5572C137.281 41.7718 137.142 42.0259 137.142 42.3196C137.142 42.5568 137.214 42.7403 137.359 42.8702C137.504 43.0001 137.71 43.0651 137.976 43.0651Z" fill="white"/>
<path d="M149.431 44.2256C148.347 44.2256 147.55 43.9743 147.041 43.4717C146.536 42.9691 146.284 42.1869 146.284 41.1252C146.284 40.0748 146.539 39.3039 147.049 38.8126C147.565 38.3157 148.37 38.0672 149.466 38.0672C150.404 38.0672 151.126 38.2677 151.63 38.6686C152.14 39.0696 152.424 39.6569 152.482 40.4306H151.048C151.013 40.0296 150.868 39.7388 150.613 39.5581C150.358 39.3774 149.976 39.287 149.466 39.287C148.817 39.287 148.368 39.4254 148.118 39.7021C147.863 39.9788 147.736 40.4532 147.736 41.1252C147.736 41.8198 147.861 42.3055 148.11 42.5822C148.359 42.8589 148.799 42.9973 149.431 42.9973C150.485 42.9973 151.036 42.5596 151.082 41.6843H152.534C152.476 42.5201 152.183 43.1526 151.656 43.5818C151.129 44.011 150.387 44.2256 149.431 44.2256Z" fill="white"/>
<path d="M156.426 44.2256C155.545 44.2256 154.902 44.0364 154.496 43.658C154.097 43.2797 153.897 42.6782 153.897 41.8537C153.897 41.0518 154.099 40.4616 154.505 40.0833C154.917 39.6992 155.557 39.5072 156.426 39.5072C157.289 39.5072 157.924 39.6992 158.33 40.0833C158.735 40.4616 158.938 41.0518 158.938 41.8537C158.938 42.6782 158.738 43.2797 158.338 43.658C157.938 44.0364 157.301 44.2256 156.426 44.2256ZM157.521 41.8537C157.521 41.3906 157.44 41.0687 157.278 40.888C157.121 40.7017 156.837 40.6085 156.426 40.6085C156.015 40.6085 155.728 40.7017 155.566 40.888C155.403 41.0744 155.322 41.3963 155.322 41.8537C155.322 42.3281 155.403 42.6585 155.566 42.8448C155.728 43.0312 156.015 43.1244 156.426 43.1244C156.837 43.1244 157.121 43.0312 157.278 42.8448C157.44 42.6585 157.521 42.3281 157.521 41.8537Z" fill="white"/>
<path d="M163.373 39.5072C163.9 39.5072 164.271 39.6456 164.486 39.9223C164.706 40.1934 164.816 40.6593 164.816 41.32V44.0985H163.399V41.3624C163.399 40.8372 163.159 40.5746 162.678 40.5746C162.434 40.5746 162.246 40.6621 162.113 40.8372C161.985 41.0123 161.922 41.2636 161.922 41.5911V44.0985H160.505V39.6343H161.922V40.3713C162.205 39.7953 162.689 39.5072 163.373 39.5072Z" fill="white"/>
<path d="M168.347 44.2256C167.066 44.2256 166.402 43.7201 166.356 42.7093H167.642C167.666 43.0651 167.932 43.2429 168.442 43.2429C168.877 43.2429 169.094 43.1074 169.094 42.8363C169.094 42.6161 168.993 42.4834 168.79 42.4382L167.703 42.1925C167.269 42.0909 166.95 41.9356 166.747 41.7266C166.544 41.512 166.443 41.2269 166.443 40.8711C166.443 40.408 166.605 40.0663 166.93 39.8461C167.26 39.6202 167.767 39.5072 168.451 39.5072C169.65 39.5072 170.279 39.976 170.337 40.9134H169.059C169.03 40.7497 168.969 40.6367 168.877 40.5746C168.784 40.5125 168.633 40.4814 168.425 40.4814C168.013 40.4814 167.808 40.6028 167.808 40.8457C167.808 41.0264 167.926 41.1478 168.164 41.2099L169.251 41.4556C169.674 41.5516 169.984 41.7069 170.181 41.9215C170.383 42.1304 170.485 42.4128 170.485 42.7686C170.485 43.2655 170.311 43.6326 169.963 43.8698C169.616 44.107 169.077 44.2256 168.347 44.2256Z" fill="white"/>
<path d="M174.907 42.1417V39.6343H176.324V44.0985H174.907V43.3615C174.623 43.9376 174.14 44.2256 173.456 44.2256C172.928 44.2256 172.555 44.09 172.334 43.819C172.12 43.5423 172.013 43.0735 172.013 42.4128V39.6343H173.43V42.3704C173.43 42.8956 173.67 43.1582 174.151 43.1582C174.394 43.1582 174.58 43.0707 174.707 42.8956C174.841 42.7206 174.907 42.4693 174.907 42.1417Z" fill="white"/>
<path d="M179.516 44.0985H178.099V37.6606H179.516V44.0985Z" fill="white"/>
<path d="M184.349 39.6343V40.7271H183.02V42.3366C183.02 42.6133 183.066 42.8138 183.159 42.938C183.257 43.0566 183.419 43.1159 183.645 43.1159C183.871 43.1159 184.106 43.0538 184.349 42.9295V44.0053C184.112 44.1522 183.793 44.2256 183.393 44.2256C182.756 44.2256 182.295 44.0759 182.011 43.7766C181.733 43.4773 181.594 42.9973 181.594 42.3366V40.7271H180.881V39.6343H181.594V38.5077H183.02V39.6343H184.349Z" fill="white"/>
<path d="M186.636 38.9143C186.323 38.9143 186.112 38.8691 186.002 38.7787C185.897 38.6884 185.845 38.5133 185.845 38.2535C185.845 37.9881 185.897 37.8074 186.002 37.7114C186.112 37.6154 186.323 37.5674 186.636 37.5674C186.955 37.5674 187.169 37.6154 187.279 37.7114C187.39 37.8017 187.445 37.9825 187.445 38.2535C187.445 38.5133 187.39 38.6884 187.279 38.7787C187.169 38.8691 186.955 38.9143 186.636 38.9143ZM187.349 44.0985H185.932V39.6343H187.349V44.0985Z" fill="white"/>
<path d="M191.991 39.5072C192.519 39.5072 192.89 39.6456 193.104 39.9223C193.324 40.1934 193.434 40.6593 193.434 41.32V44.0985H192.018V41.3624C192.018 40.8372 191.777 40.5746 191.296 40.5746C191.053 40.5746 190.864 40.6621 190.731 40.8372C190.604 41.0123 190.54 41.2636 190.54 41.5911V44.0985H189.123V39.6343H190.54V40.3713C190.824 39.7953 191.308 39.5072 191.991 39.5072Z" fill="white"/>
<path d="M198.573 40.312V39.6343H199.998V43.819C199.998 44.6322 199.801 45.2139 199.407 45.564C199.013 45.9141 198.379 46.0892 197.504 46.0892C196.768 46.0892 196.217 45.9678 195.852 45.7249C195.487 45.4821 195.29 45.0868 195.261 44.539H196.617C196.64 44.7084 196.722 44.8327 196.861 44.9117C197 44.9908 197.214 45.0303 197.504 45.0303C197.892 45.0303 198.167 44.9371 198.33 44.7508C198.492 44.5701 198.573 44.2595 198.573 43.819V43.4293C198.295 43.9263 197.773 44.1748 197.008 44.1748C196.313 44.1748 195.803 43.9856 195.479 43.6072C195.154 43.2288 194.992 42.6387 194.992 41.8368C194.992 41.0292 195.154 40.439 195.479 40.0663C195.803 39.6936 196.316 39.5072 197.017 39.5072C197.776 39.5072 198.295 39.7755 198.573 40.312ZM197.504 43.0989C197.875 43.0989 198.153 43.0058 198.338 42.8194C198.529 42.633 198.625 42.3676 198.625 42.0231V41.6758C198.625 41.3313 198.529 41.0631 198.338 40.8711C198.147 40.6791 197.866 40.5831 197.495 40.5831C197.107 40.5831 196.829 40.6791 196.661 40.8711C196.498 41.0574 196.417 41.3793 196.417 41.8368C196.417 42.2885 196.501 42.6133 196.669 42.8109C196.843 43.0029 197.121 43.0989 197.504 43.0989Z" fill="white"/>
<path d="M65.459 28.5737C66.1324 25.0605 66.7926 21.5999 67.4595 18.1409C68.0803 14.9201 68.7159 11.7026 69.3286 8.48181C69.4041 8.08598 69.4977 7.83633 69.9806 7.8429C74.5186 7.90039 79.0583 7.8971 83.5947 8.017C84.6639 8.04492 85.7578 8.37012 86.7777 8.73474C89.3219 9.64793 90.8378 11.4825 91.094 14.1975C91.4817 18.3068 90.7458 22.1123 87.7123 25.1722C85.3866 27.5176 82.4253 28.4883 79.2406 28.5901C74.7601 28.733 70.2713 28.6443 65.7858 28.6509C65.707 28.6509 65.6282 28.6147 65.459 28.5737ZM72.1815 23.8632C72.4787 23.8894 72.6906 23.9289 72.9041 23.9256C74.8701 23.8927 76.8525 24.011 78.7955 23.7794C81.8899 23.4099 83.9413 21.365 84.5949 18.3495C85.38 14.728 83.7524 12.6552 80.0569 12.601C78.4178 12.5764 76.777 12.6273 75.1378 12.5764C74.5006 12.5567 74.2887 12.7981 74.1836 13.3779C73.7812 15.5804 73.3377 17.7763 72.9156 19.9755C72.6676 21.2517 72.4311 22.5328 72.1815 23.8632Z" fill="white"/>
<path d="M116.439 7.8495C116.145 9.40488 115.911 10.8026 115.587 12.1806C115.543 12.3695 115.063 12.5731 114.782 12.5748C110.65 12.5994 106.519 12.5928 102.387 12.5928C102.06 12.5928 101.735 12.5928 101.29 12.5928C101.02 13.9626 100.756 15.3111 100.468 16.7777C105.049 16.7777 109.52 16.7777 114.111 16.7777C113.843 18.1968 113.626 19.5058 113.317 20.7918C113.273 20.9758 112.777 21.1597 112.489 21.1614C108.549 21.186 104.609 21.2025 100.669 21.1581C99.846 21.1483 99.5405 21.3848 99.4108 22.2043C99.1086 24.1211 98.6717 26.0164 98.3284 27.9266C98.2282 28.4817 98.0196 28.6969 97.4234 28.6804C95.7876 28.6361 94.1517 28.6657 92.3828 28.6657C92.5323 27.8231 92.6538 27.0824 92.7967 26.3449C93.9251 20.4913 95.0665 14.6409 96.1735 8.78404C96.3017 8.109 96.4987 7.82814 97.2575 7.83307C103.331 7.86756 109.407 7.85278 115.48 7.85278C115.751 7.8495 116.019 7.8495 116.439 7.8495Z" fill="white"/>
<path d="M184.663 22.2452C184.507 24.0766 185.29 25.1244 187.003 25.3347C189.043 25.5843 191.07 25.6287 192.663 23.9583C192.747 23.8696 192.899 23.8006 193.021 23.8006C194.954 23.7908 196.886 23.7941 199.111 23.7941C198.625 24.6629 198.316 25.3823 197.861 25.9933C196.858 27.3401 195.432 28.112 193.852 28.5538C190.748 29.421 187.589 29.5984 184.438 28.8807C180.062 27.8854 178.127 24.7861 179.032 20.3778C179.896 16.1715 182.848 13.3449 187.218 12.6157C189.776 12.1886 192.336 12.1624 194.864 12.8538C199.449 14.1086 200.63 17.9569 199.594 21.7673C199.451 22.2896 199.1 22.2469 198.714 22.2469C194.364 22.2436 190.015 22.2452 185.666 22.2452C185.346 22.2452 185.024 22.2452 184.663 22.2452ZM185.458 18.3609C185.517 18.4545 185.574 18.5481 185.633 18.6418C188.429 18.6418 191.223 18.6418 194.018 18.6418C194.002 17.5495 193.535 16.8137 192.517 16.4787C190.797 15.912 189.041 15.8956 187.414 16.725C186.675 17.1012 186.105 17.8058 185.458 18.3609Z" fill="white"/>
<path d="M128.473 12.208C129.688 12.4593 131.449 12.635 133.077 13.1984C135.956 14.1953 137.393 16.6278 137.194 19.6646C136.864 24.6724 133.601 28.2381 128.644 29.0068C125.741 29.4568 122.859 29.4913 120.082 28.3876C117.416 27.3282 116.077 25.267 116.084 22.3993C116.096 17.3488 119.494 13.4218 124.598 12.6071C125.7 12.4314 126.822 12.3739 128.473 12.208ZM125.81 25.1307C129.072 25.065 131.426 22.5947 131.23 19.3969C131.162 18.2686 130.685 17.3751 129.608 16.9464C126.165 15.5766 121.833 17.6149 122.058 22.3073C122.123 23.664 122.882 24.5328 124.201 24.8744C124.723 25.0108 125.273 25.0485 125.81 25.1307Z" fill="white"/>
<path d="M176.924 18.9322C176.722 18.9503 176.59 18.9733 176.457 18.9733C174.572 18.9749 172.685 18.9749 170.809 18.9749C170.099 15.7328 164.771 15.9578 163.042 18.2309C162.088 19.4874 161.639 20.8917 161.761 22.4487C161.876 23.9334 162.722 24.8072 164.292 25.0027C166.504 25.2769 168.496 24.8746 169.85 22.8527C169.95 22.7033 170.191 22.5686 170.37 22.5669C172.258 22.5505 174.145 22.5637 176.032 22.5719C176.104 22.5719 176.175 22.6277 176.313 22.6852C175.592 25.1357 174.145 26.9752 171.831 28.0329C168.823 29.4077 165.635 29.4701 162.415 29.1038C162.089 29.0677 161.764 29.0118 161.444 28.9396C156.857 27.8966 154.892 24.5247 156.15 19.7354C157.205 15.718 159.93 13.4202 163.921 12.6384C166.687 12.0964 169.475 12.1884 172.221 12.8848C175.306 13.6666 176.989 15.6572 176.97 18.4477C176.971 18.5824 176.945 18.7154 176.924 18.9322Z" fill="white"/>
<path d="M147.045 12.9213C146.91 13.6751 146.806 14.2598 146.652 15.127C149.247 12.7209 152.184 12.3185 155.447 12.6355C155.094 14.4881 154.756 16.2718 154.403 18.1294C153.958 18.0719 153.562 18.0325 153.169 17.9668C151.497 17.6892 149.904 18.0013 148.362 18.6254C146.711 19.2939 145.734 20.5536 145.374 22.2765C144.99 24.1243 144.632 25.9769 144.307 27.8345C144.198 28.4537 143.965 28.7001 143.3 28.6771C141.72 28.6245 140.137 28.6607 138.422 28.6607C138.685 27.258 138.921 25.9556 139.172 24.6548C139.869 21.0579 140.593 17.4642 141.252 13.8607C141.388 13.1118 141.671 12.8753 142.418 12.9032C143.916 12.9607 145.417 12.9213 147.045 12.9213Z" fill="white"/>
<defs>
<linearGradient id="paint0_linear" x1="1.92086" y1="27.1755" x2="51.8633" y2="27.1755" gradientUnits="userSpaceOnUse">
<stop stop-color="#83CC59"/>
<stop offset="1" stop-color="#10CC94"/>
</linearGradient>
</defs>
</svg>
