<svg width="256" height="70" viewBox="0 0 256 70" fill="none" xmlns="http://www.w3.org/2000/svg">
<path d="M43.5225 34.6786C42.5214 33.9481 41.9432 33.4416 41.2846 33.0683C35.7168 29.8958 30.1489 26.734 24.5596 23.5989C22.1879 22.2712 21.2832 22.7511 21.2617 25.4597C21.2136 32.7431 21.1118 40.0371 21.2885 47.3152C21.4759 54.9238 27.7183 58.2509 34.3355 54.4333C39.7321 51.3194 45.1233 48.1949 50.4823 45.0278C58.7538 40.1384 58.7163 29.128 50.4234 24.3773C42.8586 20.0425 35.2778 15.7343 27.7076 11.3995C19.5914 6.73938 9.82621 12.2632 9.78338 21.5834C9.7459 29.4053 9.77267 37.2219 9.77803 45.0438C9.78338 57.6164 14.0075 63.9294 25.6464 68.7654C21.1922 70.5889 13.9272 69.16 8.81436 65.2943C3.15548 61.0075 0.0396175 55.3503 0.0289101 48.1683C0.0128489 39.28 -0.0299808 30.397 0.0342638 21.5088C0.157399 4.84655 17.7122 -5.28407 32.3065 2.87908C39.9944 7.18192 47.6556 11.5328 55.2953 15.9156C69.5094 24.0681 70.002 44.196 56.1412 52.8923C50.7179 56.2941 45.1714 59.5252 39.55 62.5911C28.0503 68.8614 14.4679 61.2474 14.0342 48.2376C13.7451 39.5413 13.7719 30.8289 13.804 22.1219C13.8254 15.7663 19.9019 12.3165 25.5019 15.4357C33.1202 19.6799 40.6957 23.9988 48.2552 28.3496C53.186 31.1862 53.3305 37.9044 48.48 40.8689C43.5493 43.8868 38.5061 46.734 33.4843 49.5972C31.225 50.8822 29.0193 50.3917 27.9057 48.4989C26.7707 46.5687 27.3918 44.4093 29.6028 43.087C33.3451 40.8476 37.1355 38.6935 40.8938 36.4807C41.6862 36.0062 42.4196 35.4357 43.5225 34.6786Z" fill="url(#paint0_linear)"/>
<path d="M87.2545 56.2996H83.5703V48.7617H87.0547C88.5417 48.7617 89.6329 49.0645 90.3283 49.6702C91.0237 50.2686 91.3714 51.2022 91.3714 52.4712C91.3714 53.7833 91.0385 54.7495 90.3727 55.3695C89.7069 55.9896 88.6675 56.2996 87.2545 56.2996ZM85.4235 50.319V54.7423H87.2212C88.035 54.7423 88.6194 54.5656 88.9745 54.2123C89.337 53.8591 89.5182 53.2787 89.5182 52.4712C89.5182 51.7069 89.3296 51.159 88.9523 50.8273C88.575 50.4885 87.9536 50.319 87.088 50.319H85.4235Z" fill="white"/>
<path d="M99.4211 53.4337V53.8663H94.9824C95.0194 54.3421 95.1415 54.681 95.3486 54.8828C95.5557 55.0775 95.8849 55.1748 96.3362 55.1748C96.7505 55.1748 97.0575 55.1244 97.2573 55.0234C97.457 54.9153 97.5754 54.7459 97.6124 54.5151H99.3213C99.2325 55.8129 98.2264 56.4618 96.3029 56.4618C95.2228 56.4618 94.4276 56.2167 93.9171 55.7264C93.414 55.2289 93.1625 54.4575 93.1625 53.412C93.1625 52.3883 93.414 51.6384 93.9171 51.1626C94.4202 50.6795 95.2117 50.438 96.2918 50.438C97.3793 50.438 98.1709 50.6723 98.6666 51.141C99.1696 51.6096 99.4211 52.3738 99.4211 53.4337ZM96.3029 51.7249C95.8738 51.7249 95.5594 51.8079 95.3597 51.9737C95.1673 52.1395 95.0453 52.4243 94.9935 52.828H97.6013C97.5865 52.4315 97.4755 52.1503 97.2684 51.9845C97.0686 51.8115 96.7468 51.7249 96.3029 51.7249Z" fill="white"/>
<path d="M103.881 54.8937L104.846 50.6002H106.688L105.301 56.2996H102.238L100.851 50.6002H102.705L103.659 54.8937H103.881Z" fill="white"/>
<path d="M114.385 53.4337V53.8663H109.946C109.983 54.3421 110.105 54.681 110.312 54.8828C110.52 55.0775 110.849 55.1748 111.3 55.1748C111.714 55.1748 112.021 55.1244 112.221 55.0234C112.421 54.9153 112.539 54.7459 112.576 54.5151H114.285C114.196 55.8129 113.19 56.4618 111.267 56.4618C110.187 56.4618 109.391 56.2167 108.881 55.7264C108.378 55.2289 108.126 54.4575 108.126 53.412C108.126 52.3883 108.378 51.6384 108.881 51.1626C109.384 50.6795 110.176 50.438 111.256 50.438C112.343 50.438 113.135 50.6723 113.63 51.141C114.133 51.6096 114.385 52.3738 114.385 53.4337ZM111.267 51.7249C110.838 51.7249 110.523 51.8079 110.324 51.9737C110.131 52.1395 110.009 52.4243 109.957 52.828H112.565C112.55 52.4315 112.439 52.1503 112.232 51.9845C112.032 51.8115 111.711 51.7249 111.267 51.7249Z" fill="white"/>
<path d="M118.187 56.2996H116.379V48.0804H118.187V56.2996Z" fill="white"/>
<path d="M123.415 56.4618C122.291 56.4618 121.47 56.2203 120.952 55.7372C120.441 55.2541 120.186 54.4863 120.186 53.4337C120.186 52.4099 120.445 51.6565 120.963 51.1734C121.488 50.6831 122.305 50.438 123.415 50.438C124.517 50.438 125.328 50.6831 125.845 51.1734C126.363 51.6565 126.622 52.4099 126.622 53.4337C126.622 54.4863 126.367 55.2541 125.856 55.7372C125.346 56.2203 124.532 56.4618 123.415 56.4618ZM124.813 53.4337C124.813 52.8425 124.71 52.4315 124.503 52.2008C124.303 51.9629 123.94 51.8439 123.415 51.8439C122.89 51.8439 122.524 51.9629 122.317 52.2008C122.109 52.4387 122.006 52.8497 122.006 53.4337C122.006 54.0393 122.109 54.4611 122.317 54.699C122.524 54.9369 122.89 55.0559 123.415 55.0559C123.94 55.0559 124.303 54.9369 124.503 54.699C124.71 54.4611 124.813 54.0393 124.813 53.4337Z" fill="white"/>
<path d="M132.462 50.438C133.335 50.438 133.978 50.6795 134.393 51.1626C134.807 51.6456 135.014 52.4027 135.014 53.4337C135.014 54.4719 134.807 55.2361 134.393 55.7264C133.978 56.2167 133.335 56.4618 132.462 56.4618C131.478 56.4618 130.801 56.0977 130.431 55.3695V58.6788H128.622V50.6002H130.431V51.5087C130.794 50.7949 131.471 50.438 132.462 50.438ZM131.863 55.0883C132.351 55.0883 132.695 54.9622 132.895 54.7098C133.102 54.4575 133.205 54.0357 133.205 53.4445C133.205 52.8533 133.102 52.4351 132.895 52.19C132.695 51.9448 132.355 51.8223 131.874 51.8223C130.868 51.8223 130.365 52.2945 130.365 53.239V53.6067C130.365 54.0681 130.494 54.4322 130.753 54.699C131.019 54.9585 131.389 55.0883 131.863 55.0883Z" fill="white"/>
<path d="M144.166 50.438C144.795 50.438 145.235 50.6146 145.487 50.9679C145.738 51.3068 145.864 51.9052 145.864 52.7632V56.2996H144.055V52.8713C144.055 52.172 143.789 51.8223 143.256 51.8223C142.65 51.8223 142.346 52.2116 142.346 52.9903V56.2996H140.537V52.8713C140.537 52.172 140.275 51.8223 139.75 51.8223C139.165 51.8223 138.862 52.19 138.84 52.9254V56.2996H137.031V50.6002H138.84V51.606C139.195 50.8273 139.794 50.438 140.637 50.438C141.111 50.438 141.473 50.5389 141.725 50.7408C141.984 50.9355 142.161 51.2599 142.257 51.7141C142.598 50.8634 143.234 50.438 144.166 50.438Z" fill="white"/>
<path d="M154.076 53.4337V53.8663H149.637C149.674 54.3421 149.796 54.681 150.003 54.8828C150.21 55.0775 150.54 55.1748 150.991 55.1748C151.405 55.1748 151.712 55.1244 151.912 55.0234C152.112 54.9153 152.23 54.7459 152.267 54.5151H153.976C153.887 55.8129 152.881 56.4618 150.958 56.4618C149.877 56.4618 149.082 56.2167 148.572 55.7264C148.069 55.2289 147.817 54.4575 147.817 53.412C147.817 52.3883 148.069 51.6384 148.572 51.1626C149.075 50.6795 149.866 50.438 150.946 50.438C152.034 50.438 152.826 50.6723 153.321 51.141C153.824 51.6096 154.076 52.3738 154.076 53.4337ZM150.958 51.7249C150.529 51.7249 150.214 51.8079 150.014 51.9737C149.822 52.1395 149.7 52.4243 149.648 52.828H152.256C152.241 52.4315 152.13 52.1503 151.923 51.9845C151.723 51.8115 151.401 51.7249 150.958 51.7249Z" fill="white"/>
<path d="M159.731 50.438C160.405 50.438 160.878 50.6146 161.152 50.9679C161.433 51.314 161.573 51.9088 161.573 52.7523V56.2996H159.765V52.8064C159.765 52.1359 159.458 51.8007 158.844 51.8007C158.533 51.8007 158.292 51.9124 158.122 52.1359C157.96 52.3594 157.878 52.6802 157.878 53.0984V56.2996H156.069V50.6002H157.878V51.5411C158.241 50.8057 158.858 50.438 159.731 50.438Z" fill="white"/>
<path d="M167.712 50.6002V51.9953H166.014V54.0501C166.014 54.4034 166.073 54.6593 166.192 54.818C166.318 54.9694 166.525 55.0451 166.813 55.0451C167.102 55.0451 167.401 54.9658 167.712 54.8071V56.1806C167.409 56.3681 167.002 56.4618 166.491 56.4618C165.678 56.4618 165.089 56.2707 164.727 55.8886C164.372 55.5065 164.194 54.8937 164.194 54.0501V51.9953H163.284V50.6002H164.194V49.1619H166.014V50.6002H167.712Z" fill="white"/>
<path d="M179.605 54.5476L181.503 56.2996H179.261L178.562 55.6723C177.881 56.1986 177.071 56.4618 176.132 56.4618C175.229 56.4618 174.53 56.2491 174.034 55.8237C173.539 55.3983 173.291 54.7963 173.291 54.0177C173.291 53.0371 173.779 52.2188 174.756 51.5627C174.741 51.3464 174.734 51.2131 174.734 51.1626C174.734 50.3335 174.974 49.699 175.455 49.2592C175.936 48.8194 176.624 48.5995 177.519 48.5995C178.192 48.5995 178.747 48.6824 179.183 48.8482C180.042 49.1655 180.522 49.9081 180.626 51.0761H178.817C178.736 50.4128 178.336 50.0811 177.619 50.0811C176.864 50.0811 176.487 50.4019 176.487 51.0436C176.487 51.296 176.528 51.505 176.609 51.6709C176.698 51.8295 176.853 52.0097 177.075 52.2116L178.351 53.3904C178.595 53.0371 178.751 52.619 178.817 52.1359H180.626C180.515 52.9722 180.175 53.7761 179.605 54.5476ZM176.154 54.9802C176.583 54.9802 176.971 54.8432 177.319 54.5692L175.621 53.0552C175.266 53.3291 175.089 53.6536 175.089 54.0285C175.089 54.3313 175.181 54.5656 175.366 54.7314C175.551 54.8973 175.814 54.9802 176.154 54.9802Z" fill="white"/>
<path d="M190.778 56.4618C189.394 56.4618 188.377 56.141 187.726 55.4993C187.082 54.8576 186.761 53.8591 186.761 52.5036C186.761 51.1626 187.086 50.1784 187.737 49.5512C188.396 48.9167 189.424 48.5995 190.822 48.5995C192.021 48.5995 192.942 48.8554 193.585 49.3673C194.236 49.8792 194.599 50.6291 194.673 51.6168H192.842C192.797 51.1049 192.612 50.7336 192.287 50.5029C191.961 50.2722 191.473 50.1568 190.822 50.1568C189.994 50.1568 189.42 50.3335 189.102 50.6867C188.777 51.04 188.614 51.6456 188.614 52.5036C188.614 53.3904 188.773 54.0105 189.091 54.3637C189.409 54.717 189.971 54.8937 190.778 54.8937C192.124 54.8937 192.827 54.3349 192.886 53.2174H194.739C194.665 54.2844 194.292 55.0919 193.619 55.6399C192.945 56.1878 191.998 56.4618 190.778 56.4618Z" fill="white"/>
<path d="M199.708 56.4618C198.584 56.4618 197.763 56.2203 197.245 55.7372C196.734 55.2541 196.479 54.4863 196.479 53.4337C196.479 52.4099 196.738 51.6565 197.256 51.1734C197.781 50.6831 198.599 50.438 199.708 50.438C200.811 50.438 201.621 50.6831 202.139 51.1734C202.656 51.6565 202.915 52.4099 202.915 53.4337C202.915 54.4863 202.66 55.2541 202.15 55.7372C201.639 56.2203 200.825 56.4618 199.708 56.4618ZM201.107 53.4337C201.107 52.8425 201.003 52.4315 200.796 52.2008C200.596 51.9629 200.234 51.8439 199.708 51.8439C199.183 51.8439 198.817 51.9629 198.61 52.2008C198.403 52.4387 198.299 52.8497 198.299 53.4337C198.299 54.0393 198.403 54.4611 198.61 54.699C198.817 54.9369 199.183 55.0559 199.708 55.0559C200.234 55.0559 200.596 54.9369 200.796 54.699C201.003 54.4611 201.107 54.0393 201.107 53.4337Z" fill="white"/>
<path d="M208.577 50.438C209.251 50.438 209.724 50.6146 209.998 50.9679C210.279 51.314 210.42 51.9088 210.42 52.7523V56.2996H208.611V52.8064C208.611 52.1359 208.304 51.8007 207.69 51.8007C207.379 51.8007 207.139 51.9124 206.968 52.1359C206.806 52.3594 206.724 52.6802 206.724 53.0984V56.2996H204.916V50.6002H206.724V51.5411C207.087 50.8057 207.705 50.438 208.577 50.438Z" fill="white"/>
<path d="M214.927 56.4618C213.292 56.4618 212.445 55.8165 212.386 54.526H214.028C214.058 54.9802 214.398 55.2073 215.049 55.2073C215.604 55.2073 215.881 55.0343 215.881 54.6882C215.881 54.407 215.752 54.2376 215.493 54.1799L214.106 53.8663C213.551 53.7365 213.144 53.5382 212.885 53.2715C212.626 52.9975 212.497 52.6334 212.497 52.1792C212.497 51.588 212.704 51.1518 213.118 50.8706C213.54 50.5822 214.187 50.438 215.06 50.438C216.591 50.438 217.394 51.0364 217.468 52.2332H215.837C215.8 52.0242 215.722 51.88 215.604 51.8007C215.485 51.7213 215.293 51.6817 215.027 51.6817C214.502 51.6817 214.239 51.8367 214.239 52.1467C214.239 52.3774 214.391 52.5324 214.694 52.6118L216.081 52.9254C216.621 53.0479 217.017 53.2462 217.268 53.5202C217.527 53.787 217.657 54.1474 217.657 54.6017C217.657 55.2361 217.435 55.7048 216.991 56.0076C216.547 56.3104 215.859 56.4618 214.927 56.4618Z" fill="white"/>
<path d="M223.303 53.8014V50.6002H225.112V56.2996H223.303V55.3587C222.94 56.0941 222.323 56.4618 221.45 56.4618C220.777 56.4618 220.299 56.2888 220.018 55.9427C219.745 55.5894 219.608 54.991 219.608 54.1474V50.6002H221.416V54.0934C221.416 54.7639 221.723 55.0991 222.337 55.0991C222.648 55.0991 222.885 54.9874 223.048 54.7639C223.218 54.5404 223.303 54.2195 223.303 53.8014Z" fill="white"/>
<path d="M229.186 56.2996H227.378V48.0804H229.186V56.2996Z" fill="white"/>
<path d="M235.357 50.6002V51.9953H233.66V54.0501C233.66 54.4034 233.719 54.6593 233.837 54.818C233.963 54.9694 234.17 55.0451 234.459 55.0451C234.747 55.0451 235.047 54.9658 235.357 54.8071V56.1806C235.054 56.3681 234.647 56.4618 234.137 56.4618C233.323 56.4618 232.735 56.2707 232.372 55.8886C232.017 55.5065 231.84 54.8937 231.84 54.0501V51.9953H230.93V50.6002H231.84V49.1619H233.66V50.6002H235.357Z" fill="white"/>
<path d="M238.277 49.681C237.878 49.681 237.607 49.6233 237.467 49.5079C237.334 49.3926 237.267 49.1691 237.267 48.8374C237.267 48.4986 237.334 48.2678 237.467 48.1453C237.607 48.0227 237.878 47.9614 238.277 47.9614C238.684 47.9614 238.958 48.0227 239.098 48.1453C239.239 48.2606 239.309 48.4913 239.309 48.8374C239.309 49.1691 239.239 49.3926 239.098 49.5079C238.958 49.6233 238.684 49.681 238.277 49.681ZM239.187 56.2996H237.378V50.6002H239.187V56.2996Z" fill="white"/>
<path d="M245.114 50.438C245.787 50.438 246.261 50.6146 246.534 50.9679C246.815 51.314 246.956 51.9088 246.956 52.7523V56.2996H245.147V52.8064C245.147 52.1359 244.84 51.8007 244.226 51.8007C243.915 51.8007 243.675 51.9124 243.505 52.1359C243.342 52.3594 243.261 52.6802 243.261 53.0984V56.2996H241.452V50.6002H243.261V51.5411C243.623 50.8057 244.241 50.438 245.114 50.438Z" fill="white"/>
<path d="M253.516 51.4654V50.6002H255.336V55.9427C255.336 56.9809 255.085 57.7235 254.582 58.1705C254.079 58.6175 253.268 58.841 252.151 58.841C251.212 58.841 250.509 58.686 250.043 58.376C249.577 58.066 249.325 57.5613 249.288 56.8619H251.02C251.049 57.0782 251.153 57.2368 251.33 57.3378C251.508 57.4387 251.781 57.4892 252.151 57.4892C252.647 57.4892 252.998 57.3702 253.206 57.1323C253.413 56.9016 253.516 56.5051 253.516 55.9427V55.4452C253.161 56.0797 252.495 56.3969 251.519 56.3969C250.631 56.3969 249.98 56.1554 249.566 55.6723C249.152 55.1893 248.944 54.4358 248.944 53.412C248.944 52.381 249.152 51.6276 249.566 51.1518C249.98 50.6759 250.635 50.438 251.53 50.438C252.499 50.438 253.161 50.7805 253.516 51.4654ZM252.151 55.0234C252.625 55.0234 252.98 54.9045 253.217 54.6666C253.461 54.4286 253.583 54.0898 253.583 53.65V53.2066C253.583 52.7668 253.461 52.4243 253.217 52.1792C252.973 51.934 252.614 51.8115 252.14 51.8115C251.645 51.8115 251.29 51.934 251.075 52.1792C250.868 52.4171 250.764 52.828 250.764 53.412C250.764 53.9888 250.872 54.4034 251.086 54.6557C251.308 54.9009 251.663 55.0234 252.151 55.0234Z" fill="white"/>
<path d="M83.5723 36.4784C84.432 31.9932 85.2749 27.5751 86.1262 23.1591C86.9188 19.0472 87.7303 14.9395 88.5125 10.8276C88.6089 10.3222 88.7284 10.0035 89.3449 10.0119C95.1385 10.0853 100.934 10.0811 106.726 10.2341C108.091 10.2698 109.487 10.685 110.789 11.1505C114.037 12.3163 115.973 14.6585 116.3 18.1246C116.795 23.3709 115.855 28.2293 111.983 32.1358C109.013 35.1301 105.233 36.3693 101.167 36.4993C95.4467 36.6818 89.716 36.5685 83.9895 36.5769C83.8889 36.5769 83.7882 36.5308 83.5723 36.4784ZM92.1547 30.4646C92.5342 30.4981 92.8047 30.5485 93.0773 30.5443C95.5872 30.5023 98.1181 30.6533 100.599 30.3576C104.549 29.8859 107.168 27.2753 108.003 23.4254C109.005 18.8019 106.927 16.1557 102.209 16.0865C100.116 16.055 98.0217 16.12 95.929 16.055C95.1154 16.0298 94.8449 16.3381 94.7107 17.0783C94.197 19.8902 93.6309 22.6936 93.092 25.5013C92.7754 27.1306 92.4734 28.7661 92.1547 30.4646Z" fill="white"/>
<path d="M148.656 10.021C148.281 12.0068 147.981 13.7912 147.568 15.5504C147.511 15.7916 146.899 16.0516 146.54 16.0537C141.265 16.0851 135.991 16.0768 130.715 16.0768C130.298 16.0768 129.883 16.0768 129.315 16.0768C128.971 17.8255 128.633 19.547 128.266 21.4195C134.114 21.4195 139.822 21.4195 145.683 21.4195C145.341 23.2312 145.064 24.9024 144.67 26.5442C144.613 26.7791 143.98 27.0139 143.613 27.016C138.583 27.0475 133.552 27.0685 128.522 27.0118C127.471 26.9993 127.081 27.3012 126.916 28.3475C126.53 30.7946 125.972 33.2143 125.534 35.653C125.406 36.3617 125.14 36.6364 124.379 36.6154C122.29 36.5588 120.202 36.5966 117.943 36.5966C118.134 35.5209 118.289 34.5752 118.472 33.6337C119.912 26.1605 121.37 18.6915 122.783 11.2142C122.946 10.3524 123.198 9.99379 124.167 10.0001C131.921 10.0441 139.677 10.0252 147.431 10.0252C147.777 10.021 148.119 10.021 148.656 10.021Z" fill="white"/>
<path d="M235.755 28.3994C235.556 30.7374 236.556 32.0752 238.743 32.3436C241.348 32.6623 243.935 32.719 245.969 30.5865C246.076 30.4732 246.271 30.3852 246.426 30.3852C248.894 30.3726 251.36 30.3768 254.201 30.3768C253.581 31.486 253.186 32.4044 252.606 33.1845C251.324 34.9039 249.504 35.8894 247.487 36.4535C243.524 37.5606 239.492 37.787 235.468 36.8707C229.882 35.6 227.412 31.6433 228.567 26.0153C229.67 20.6453 233.438 17.0366 239.018 16.1056C242.283 15.5604 245.552 15.5269 248.779 16.4096C254.633 18.0116 256.141 22.9246 254.818 27.7893C254.635 28.4561 254.187 28.4015 253.694 28.4015C248.141 28.3973 242.589 28.3994 237.036 28.3994C236.628 28.3994 236.217 28.3994 235.755 28.3994ZM236.77 23.4404C236.846 23.5599 236.919 23.6794 236.995 23.7989C240.563 23.7989 244.13 23.7989 247.699 23.7989C247.678 22.4045 247.083 21.4651 245.782 21.0374C243.587 20.314 241.346 20.293 239.268 21.3519C238.324 21.8321 237.596 22.7316 236.77 23.4404Z" fill="white"/>
<path d="M164.02 15.5859C165.571 15.9068 167.819 16.1311 169.897 16.8503C173.573 18.1231 175.408 21.2286 175.154 25.1056C174.733 31.499 170.566 36.0512 164.238 37.0325C160.533 37.6071 156.853 37.6511 153.307 36.242C149.904 34.8896 148.195 32.258 148.203 28.5969C148.218 22.1491 152.556 17.1355 159.073 16.0955C160.48 15.8711 161.912 15.7977 164.02 15.5859ZM160.621 32.084C164.785 32.0001 167.79 28.8464 167.54 24.7639C167.452 23.3233 166.844 22.1826 165.469 21.6354C161.074 19.8866 155.542 22.4888 155.829 28.4795C155.913 30.2115 156.882 31.3207 158.566 31.7569C159.233 31.9309 159.935 31.9791 160.621 32.084Z" fill="white"/>
<path d="M225.872 24.1708C225.614 24.1938 225.446 24.2232 225.277 24.2232C222.869 24.2253 220.46 24.2253 218.066 24.2253C217.16 20.0861 210.358 20.3734 208.15 23.2754C206.931 24.8795 206.359 26.6723 206.514 28.6601C206.661 30.5557 207.741 31.6712 209.745 31.9207C212.57 32.2709 215.113 31.7572 216.841 29.176C216.969 28.9851 217.277 28.8132 217.506 28.8111C219.915 28.7901 222.324 28.8069 224.734 28.8174C224.826 28.8174 224.916 28.8887 225.092 28.9621C224.172 32.0906 222.324 34.4391 219.37 35.7894C215.53 37.5445 211.46 37.6242 207.349 37.1566C206.933 37.1105 206.518 37.0392 206.109 36.9469C200.253 35.6154 197.745 31.3106 199.351 25.1961C200.697 20.0672 204.176 17.1337 209.271 16.1356C212.802 15.4437 216.363 15.5611 219.869 16.4502C223.807 17.4483 225.956 19.9897 225.931 23.5522C225.933 23.7241 225.899 23.894 225.872 24.1708Z" fill="white"/>
<path d="M187.727 16.4961C187.555 17.4585 187.423 18.205 187.226 19.3121C190.539 16.2402 194.288 15.7265 198.455 16.1312C198.004 18.4965 197.572 20.7736 197.121 23.1452C196.553 23.0718 196.048 23.0215 195.546 22.9376C193.412 22.5832 191.378 22.9816 189.409 23.7784C187.302 24.6318 186.054 26.2401 185.595 28.4397C185.104 30.7987 184.647 33.1639 184.232 35.5355C184.093 36.326 183.796 36.6405 182.946 36.6112C180.929 36.5441 178.908 36.5902 176.719 36.5902C177.054 34.7995 177.356 33.1367 177.677 31.476C178.566 26.8839 179.491 22.2959 180.332 17.6955C180.506 16.7393 180.866 16.4373 181.82 16.473C183.733 16.5464 185.649 16.4961 187.727 16.4961Z" fill="white"/>
<defs>
<linearGradient id="paint0_linear" x1="2.45232" y1="34.6943" x2="66.2127" y2="34.6943" gradientUnits="userSpaceOnUse">
<stop stop-color="#83CC59"/>
<stop offset="1" stop-color="#10CC94"/>
</linearGradient>
</defs>
</svg>
