<svg width="140" height="142" viewBox="0 0 140 142" fill="none" xmlns="http://www.w3.org/2000/svg">
<rect x="20" y="38.75" width="99.9375" height="92.25" rx="15" fill="#5BA550" fill-opacity="0.15"/>
<rect x="20" y="31.0625" width="99.9375" height="92.25" rx="15" fill="#5BA550" fill-opacity="0.15"/>
<g filter="url(#filter0_d)">
<rect x="20" y="23.375" width="99.9375" height="92.25" rx="15" fill="#5BA550" fill-opacity="0.3"/>
</g>
<g filter="url(#filter1_d)">
<rect x="20" y="8" width="99.9375" height="99.9375" rx="15" fill="url(#paint0_linear)"/>
</g>
<path fill-rule="evenodd" clip-rule="evenodd" d="M57.6703 31.4636C55.4555 32.493 53.3913 33.7919 51.5198 35.3181L51.5198 80.6192C55.8036 84.1126 61.097 86.415 66.8952 87.0214V84.7435L57.6703 75.5178V69.0887C56.7509 68.5571 56.1323 67.5631 56.1323 66.4247C56.1323 65.2863 56.7509 64.2924 57.6703 63.7608L57.6703 31.4636ZM60.7453 74.2442V69.088C61.6642 68.5563 62.2823 67.5627 62.2823 66.4247C62.2823 65.2868 61.6642 64.2932 60.7453 63.7614L60.7453 30.2422C62.7108 29.5887 64.7691 29.1383 66.8952 28.916V39.9294C65.9755 40.4609 65.3566 41.455 65.3566 42.5936C65.3566 43.7322 65.9755 44.7263 66.8952 45.2578V80.3946L60.7453 74.2442ZM41.1635 53.0821C42.1199 47.4035 44.7146 42.2812 48.4448 38.2181L48.4448 45.8008L41.1635 53.0821ZM40.7569 57.8374L40.7566 57.9687C40.7566 65.5842 43.6708 72.5192 48.4448 77.7192L48.4448 50.1495L40.7569 57.8374ZM69.9702 58.0998V45.2566C70.8887 44.7248 71.5066 43.7314 71.5066 42.5936C71.5066 41.4559 70.8887 40.4624 69.9702 39.9306V28.7562C72.0795 28.7562 74.1365 28.9799 76.119 29.4046V51.9505L69.9702 58.0998ZM76.1195 86.5326C74.1369 86.9574 72.0796 87.1811 69.9702 87.1812V74.7482L88.4192 56.2992L88.4192 50.6386C89.3385 50.1069 89.957 49.1131 89.957 47.9748C89.957 46.8365 89.3385 45.8427 88.4192 45.3111L88.4192 35.3187C94.1349 39.9802 98.053 46.7622 98.9737 54.465L94.2631 59.1756L88.8442 64.3589C88.4771 64.2041 88.0737 64.1186 87.6504 64.1186C85.9521 64.1186 84.5754 65.4953 84.5754 67.1936C84.5754 67.5686 84.6425 67.928 84.7654 68.2603L76.1195 76.5304V86.5326ZM85.3442 45.3114L85.3442 33.1249C83.4302 31.9379 81.3689 30.9658 79.194 30.2426V53.2242L69.9702 62.4486V70.3995L85.3442 55.0255L85.3442 50.6383C84.4252 50.1066 83.807 49.1129 83.807 47.9748C83.807 46.8368 84.4252 45.8431 85.3442 45.3114ZM87.1559 70.229L79.1945 77.8443V85.6946C90.6137 81.8969 98.9015 71.2418 99.1747 58.6127L96.4133 61.3741L90.7046 66.8346C90.7183 66.9523 90.7254 67.0721 90.7254 67.1936C90.7254 68.8918 89.3486 70.2686 87.6504 70.2686C87.482 70.2686 87.3169 70.255 87.1559 70.229ZM69.9691 25.6812C76.8155 25.6812 83.1641 27.812 88.388 31.4467H88.4192V31.4684C96.7839 37.303 102.257 46.9967 102.257 57.9687C102.257 75.8006 87.801 90.2562 69.9691 90.2562C52.1372 90.2562 37.6816 75.8006 37.6816 57.9687C37.6816 40.1368 52.1372 25.6812 69.9691 25.6812Z" fill="white"/>
<defs>
<filter id="filter0_d" x="0" y="9.375" width="139.938" height="132.25" filterUnits="userSpaceOnUse" color-interpolation-filters="sRGB">
<feFlood flood-opacity="0" result="BackgroundImageFix"/>
<feColorMatrix in="SourceAlpha" type="matrix" values="0 0 0 0 0 0 0 0 0 0 0 0 0 0 0 0 0 0 127 0"/>
<feOffset dy="6"/>
<feGaussianBlur stdDeviation="10"/>
<feColorMatrix type="matrix" values="0 0 0 0 0.227451 0 0 0 0 0.8 0 0 0 0 0.505882 0 0 0 0.5 0"/>
<feBlend mode="normal" in2="BackgroundImageFix" result="effect1_dropShadow"/>
<feBlend mode="normal" in="SourceGraphic" in2="effect1_dropShadow" result="shape"/>
</filter>
<filter id="filter1_d" x="8" y="0" width="123.938" height="123.938" filterUnits="userSpaceOnUse" color-interpolation-filters="sRGB">
<feFlood flood-opacity="0" result="BackgroundImageFix"/>
<feColorMatrix in="SourceAlpha" type="matrix" values="0 0 0 0 0 0 0 0 0 0 0 0 0 0 0 0 0 0 127 0"/>
<feOffset dy="4"/>
<feGaussianBlur stdDeviation="6"/>
<feColorMatrix type="matrix" values="0 0 0 0 0.227451 0 0 0 0 0.8 0 0 0 0 0.505882 0 0 0 0.7 0"/>
<feBlend mode="normal" in2="BackgroundImageFix" result="effect1_dropShadow"/>
<feBlend mode="normal" in="SourceGraphic" in2="effect1_dropShadow" result="shape"/>
</filter>
<linearGradient id="paint0_linear" x1="113.275" y1="8" x2="20" y2="121.263" gradientUnits="userSpaceOnUse">
<stop stop-color="#0EB382"/>
<stop offset="1" stop-color="#73B34E"/>
</linearGradient>
</defs>
</svg>
