<svg width="141" height="143" viewBox="0 0 141 143" fill="none" xmlns="http://www.w3.org/2000/svg">
<rect x="20" y="39" width="100.294" height="93" rx="15" fill="#5BA550" fill-opacity="0.15"/>
<rect x="20" y="30.7942" width="100.294" height="93" rx="15" fill="#5BA550" fill-opacity="0.15"/>
<g filter="url(#filter0_d)">
<rect x="20" y="23.5" width="100.294" height="93" rx="15" fill="#5BA550" fill-opacity="0.3"/>
</g>
<g filter="url(#filter1_d)">
<rect x="20" y="8" width="100.294" height="100.294" rx="15" fill="url(#paint0_linear)"/>
</g>
<path fill-rule="evenodd" clip-rule="evenodd" d="M72.7 27.375C72.7 28.659 71.659 29.7 70.375 29.7C69.0909 29.7 68.05 28.659 68.05 27.375C68.05 26.0909 69.0909 25.05 70.375 25.05C71.659 25.05 72.7 26.0909 72.7 27.375ZM75.5735 28.9311C75.1739 30.2677 74.273 31.3879 73.0889 32.0733C74.2892 38.2258 77.1776 44.5552 80.6094 50.163C84.5148 56.5447 89.0352 61.8486 92.3241 64.7446L93.2289 65.5413L92.6793 66.6144L92.5921 66.5697L91.3179 65.9172L92.6793 66.6144L92.2376 67.4765C91.9563 68.0252 91.5543 68.8094 91.0709 69.7515C90.1042 71.6356 88.8122 74.1513 87.5114 76.6775C86.2108 79.2033 84.9004 81.7413 83.8972 83.6692C83.5334 84.3681 83.2092 84.9885 82.9401 85.4999H86.6496V94.0249H54.0996V85.4999H57.8084C57.5393 84.9885 57.2151 84.3681 56.8513 83.6692C55.8481 81.7413 54.5377 79.2033 53.2371 76.6775C51.9363 74.1513 50.6443 71.6356 49.6776 69.7515C49.1942 68.8094 48.7922 68.0252 48.5109 67.4765L48.0692 66.6144L47.5196 65.5413L48.4244 64.7446C51.7133 61.8486 56.2337 56.5447 60.1391 50.163C63.571 44.5549 66.4595 38.2253 67.6597 32.0726C66.4763 31.3871 65.5758 30.2672 65.1764 28.9311C54.3061 29.1737 45.9196 36.6126 45.585 45.4277C47.8206 46.0979 49.4496 48.1712 49.4496 50.625C49.4496 53.6211 47.0208 56.05 44.0246 56.05C41.0285 56.05 38.5996 53.6211 38.5996 50.625C38.5996 48.1643 40.2378 46.0863 42.4831 45.4221C42.8171 34.5106 53.0125 26.0788 65.1729 25.8306C65.8381 23.5868 67.9154 21.95 70.375 21.95C72.8346 21.95 74.9119 23.5868 75.577 25.8306C87.7368 26.0794 97.9314 34.5111 98.2654 45.4221C100.511 46.0863 102.149 48.1643 102.149 50.625C102.149 53.6211 99.72 56.05 96.7239 56.05C93.7277 56.05 91.2989 53.6211 91.2989 50.625C91.2989 48.1712 92.9279 46.0979 95.1635 45.4277C94.829 36.613 86.4431 29.1744 75.5735 28.9311ZM71.9253 39.3925V52.3996C74.166 53.0667 75.8 55.1425 75.8 57.5999C75.8 60.596 73.3711 63.0249 70.375 63.0249C67.3788 63.0249 64.95 60.596 64.95 57.5999C64.95 55.1422 66.5842 53.0662 68.8253 52.3994L68.8253 39.3866C67.2675 43.7335 65.1243 47.9556 62.7832 51.7811C59.0781 57.8357 54.8024 63.0179 51.3682 66.2547C51.6414 66.7877 52.0065 67.4998 52.4357 68.3363C53.402 70.2197 54.6933 72.7339 55.9932 75.2583C57.2933 77.7832 58.6012 80.3164 59.6013 82.2382C60.1016 83.1996 60.5232 84.0048 60.8277 84.5786C60.9804 84.8662 61.1009 85.0905 61.186 85.2453C61.229 85.3237 61.2589 85.3766 61.2773 85.4083L61.2851 85.4217C61.2648 85.39 61.2236 85.3298 61.1709 85.2682L60.8996 85.4999H79.8489L79.5776 85.2682C79.5249 85.3298 79.4837 85.39 79.4634 85.4217L79.4712 85.4083C79.4896 85.3766 79.5195 85.3237 79.5625 85.2453C79.6476 85.0905 79.7681 84.8662 79.9208 84.5786C80.2253 84.0048 80.6469 83.1996 81.1472 82.2382C82.1473 80.3164 83.4552 77.7832 84.7553 75.2583C86.0552 72.7339 87.3465 70.2197 88.3128 68.3363C88.742 67.4998 89.1071 66.7877 89.3803 66.2547C85.9461 63.0179 81.6704 57.8357 77.9653 51.7811C75.6253 47.9574 73.483 43.7374 71.9253 39.3925ZM79.4494 85.4444C79.4491 85.4452 79.4535 85.4383 79.4634 85.4217C79.4546 85.4353 79.4496 85.4437 79.4494 85.4444ZM61.2991 85.4444C61.2989 85.4437 61.2939 85.4353 61.2851 85.4217C61.295 85.4383 61.2994 85.4452 61.2991 85.4444ZM57.1996 90.9249V88.5999H83.5496V90.9249H57.1996ZM70.375 59.9249C71.659 59.9249 72.7 58.8839 72.7 57.5999C72.7 56.3158 71.659 55.2749 70.375 55.2749C69.0909 55.2749 68.05 56.3158 68.05 57.5999C68.05 58.8839 69.0909 59.9249 70.375 59.9249ZM44.0246 52.95C45.3087 52.95 46.3496 51.909 46.3496 50.625C46.3496 49.3409 45.3087 48.3 44.0246 48.3C42.7405 48.3 41.6996 49.3409 41.6996 50.625C41.6996 51.909 42.7405 52.95 44.0246 52.95ZM94.3989 50.625C94.3989 51.909 95.4398 52.95 96.7239 52.95C98.008 52.95 99.0489 51.909 99.0489 50.625C99.0489 49.3409 98.008 48.3 96.7239 48.3C95.4398 48.3 94.3989 49.3409 94.3989 50.625Z" fill="white"/>
<defs>
<filter id="filter0_d" x="0" y="9.5" width="140.294" height="133" filterUnits="userSpaceOnUse" color-interpolation-filters="sRGB">
<feFlood flood-opacity="0" result="BackgroundImageFix"/>
<feColorMatrix in="SourceAlpha" type="matrix" values="0 0 0 0 0 0 0 0 0 0 0 0 0 0 0 0 0 0 127 0"/>
<feOffset dy="6"/>
<feGaussianBlur stdDeviation="10"/>
<feColorMatrix type="matrix" values="0 0 0 0 0.227451 0 0 0 0 0.8 0 0 0 0 0.505882 0 0 0 0.5 0"/>
<feBlend mode="normal" in2="BackgroundImageFix" result="effect1_dropShadow"/>
<feBlend mode="normal" in="SourceGraphic" in2="effect1_dropShadow" result="shape"/>
</filter>
<filter id="filter1_d" x="8" y="0" width="124.294" height="124.294" filterUnits="userSpaceOnUse" color-interpolation-filters="sRGB">
<feFlood flood-opacity="0" result="BackgroundImageFix"/>
<feColorMatrix in="SourceAlpha" type="matrix" values="0 0 0 0 0 0 0 0 0 0 0 0 0 0 0 0 0 0 127 0"/>
<feOffset dy="4"/>
<feGaussianBlur stdDeviation="6"/>
<feColorMatrix type="matrix" values="0 0 0 0 0.227451 0 0 0 0 0.8 0 0 0 0 0.505882 0 0 0 0.7 0"/>
<feBlend mode="normal" in2="BackgroundImageFix" result="effect1_dropShadow"/>
<feBlend mode="normal" in="SourceGraphic" in2="effect1_dropShadow" result="shape"/>
</filter>
<linearGradient id="paint0_linear" x1="113.608" y1="8" x2="20" y2="121.667" gradientUnits="userSpaceOnUse">
<stop stop-color="#0EB382"/>
<stop offset="1" stop-color="#73B34E"/>
</linearGradient>
</defs>
</svg>
