<svg width="140" height="142" viewBox="0 0 140 142" fill="none" xmlns="http://www.w3.org/2000/svg">
<rect x="20" y="38.7693" width="100" height="92.3077" rx="15" fill="#5BA550" fill-opacity="0.15"/>
<rect x="20" y="31.0769" width="100" height="92.3077" rx="15" fill="#5BA550" fill-opacity="0.15"/>
<g filter="url(#filter0_d)">
<rect x="20" y="23.3848" width="100" height="92.3077" rx="15" fill="#5BA550" fill-opacity="0.3"/>
</g>
<g filter="url(#filter1_d)">
<rect x="20" y="8" width="100" height="100" rx="15" fill="url(#paint0_linear)"/>
</g>
<path d="M90.3744 78.674L81.5413 59.8793C80.8176 58.3392 79.1344 57.4635 77.4873 57.5586L73.4759 49.0231C74.7586 47.9934 75.3612 46.3137 74.9054 44.7158C78.6137 40.9182 82.2487 39.5256 85.4585 40.6831C87.7388 41.5053 89.3159 43.3778 90.2365 44.8004C91.1773 46.2611 93.1573 46.8793 94.6676 46.1696C95.4701 45.7947 96.0775 45.1301 96.3809 44.2972C96.6826 43.4606 96.6401 42.5586 96.2598 41.7541L95.1891 39.4711C92.7049 34.1851 89.0019 30.6253 84.1844 28.8882C78.2487 26.7478 72.0777 27.8902 67.6174 29.4208C66.4469 28.0657 64.3723 27.5987 62.7169 28.3766L54.5357 32.2235C53.3825 32.7654 52.5447 33.6836 52.1138 34.8784L51.2433 37.2925C50.915 38.203 49.8577 40.2099 47.129 39.226L46.5303 39.0101C45.9971 38.8178 45.1413 38.6977 44.096 39.1889L39.6479 41.2769C37.5861 42.2481 36.6958 44.717 37.6634 46.7805L42.5252 57.1256C42.9955 58.1263 43.8256 58.8829 44.8673 59.2585C45.9063 59.6332 47.0282 59.5805 48.0289 59.1103L52.477 57.0222C53.527 56.5265 53.9752 55.7891 54.1635 55.2669L54.3851 54.6609C55.369 51.9324 57.588 52.4019 58.4957 52.7293L60.9127 53.6008C61.8012 53.9212 62.7112 53.9682 63.5926 53.7515L67.5604 62.194C67.154 62.6098 66.8223 63.0926 66.6193 63.6558C66.2446 64.6948 66.2973 65.8167 66.7703 66.8184L75.5989 85.6083C76.5255 87.5799 78.1651 89.0733 80.2157 89.8127C82.2663 90.5521 84.4817 90.4489 86.4533 89.5223C88.4239 88.5986 89.9173 86.959 90.6567 84.9085C91.3961 82.8579 91.302 80.6428 90.3744 78.674ZM63.2643 50.8062C62.8068 51.0213 62.3733 51.0411 61.9003 50.8705L59.4833 49.999C56.0411 48.7577 52.894 50.2366 51.6528 53.6788L51.24 54.395L46.7919 56.483C46.1967 56.7627 45.4377 56.4859 45.157 55.8934L40.2924 45.5473C40.0039 44.9336 40.2691 44.1981 40.8829 43.9097L45.5489 41.7488L46.1449 41.9637C49.5871 43.205 52.7342 41.7261 53.9764 38.2812L54.8479 35.8643C55.0185 35.3913 55.3104 35.0702 55.7679 34.8552L63.9529 31.0066C64.2505 30.8667 64.5837 30.8509 64.8926 30.9624C65.2016 31.0738 65.448 31.2986 65.692 31.8129L66.2684 33.0248L67.5211 32.5497C71.5706 31.01 77.579 29.5989 83.1975 31.6249C87.2631 33.091 90.4148 36.1491 92.5581 40.7097L93.6288 42.9928C93.6935 43.1304 93.6685 43.2512 93.6468 43.3113C93.6184 43.3814 93.5608 43.4812 93.4306 43.5423C93.1972 43.6497 92.8597 43.5064 92.6816 43.229C91.0097 40.6426 88.8522 38.8204 86.4434 37.9518C83.2473 36.7993 78.1703 36.8099 72.1357 43.4174L71.4821 44.1333L72.0378 45.3254C72.1777 45.623 72.1935 45.9562 72.0831 46.2624C71.9717 46.5714 71.7469 46.8178 71.4493 46.9576L67.3573 48.8806L63.2643 50.8062ZM66.2673 52.6059L68.5923 51.5133L70.9173 50.4207L74.7225 58.5172L70.0688 60.7041L66.2673 52.6059ZM85.2255 86.8953C82.6857 88.0866 79.4302 86.9188 78.2344 84.3744L69.4058 65.5844C69.2659 65.2868 69.2484 64.9499 69.3588 64.6437C69.4692 64.3375 69.6978 64.0893 69.9954 63.9495L73.6372 62.2381L77.2791 60.5266C77.5767 60.3868 77.9099 60.371 78.2188 60.4824C78.5278 60.5938 78.7742 60.8186 78.9141 61.1162L87.7471 79.9109C88.346 81.1804 88.4097 82.606 87.9345 83.9238C87.4593 85.2416 86.4977 86.2975 85.2255 86.8953Z" fill="white"/>
<defs>
<filter id="filter0_d" x="0" y="9.38477" width="140" height="132.308" filterUnits="userSpaceOnUse" color-interpolation-filters="sRGB">
<feFlood flood-opacity="0" result="BackgroundImageFix"/>
<feColorMatrix in="SourceAlpha" type="matrix" values="0 0 0 0 0 0 0 0 0 0 0 0 0 0 0 0 0 0 127 0"/>
<feOffset dy="6"/>
<feGaussianBlur stdDeviation="10"/>
<feColorMatrix type="matrix" values="0 0 0 0 0.227451 0 0 0 0 0.8 0 0 0 0 0.505882 0 0 0 0.5 0"/>
<feBlend mode="normal" in2="BackgroundImageFix" result="effect1_dropShadow"/>
<feBlend mode="normal" in="SourceGraphic" in2="effect1_dropShadow" result="shape"/>
</filter>
<filter id="filter1_d" x="8" y="0" width="124" height="124" filterUnits="userSpaceOnUse" color-interpolation-filters="sRGB">
<feFlood flood-opacity="0" result="BackgroundImageFix"/>
<feColorMatrix in="SourceAlpha" type="matrix" values="0 0 0 0 0 0 0 0 0 0 0 0 0 0 0 0 0 0 127 0"/>
<feOffset dy="4"/>
<feGaussianBlur stdDeviation="6"/>
<feColorMatrix type="matrix" values="0 0 0 0 0.227451 0 0 0 0 0.8 0 0 0 0 0.505882 0 0 0 0.7 0"/>
<feBlend mode="normal" in2="BackgroundImageFix" result="effect1_dropShadow"/>
<feBlend mode="normal" in="SourceGraphic" in2="effect1_dropShadow" result="shape"/>
</filter>
<linearGradient id="paint0_linear" x1="113.333" y1="8" x2="20" y2="121.333" gradientUnits="userSpaceOnUse">
<stop stop-color="#0EB382"/>
<stop offset="1" stop-color="#73B34E"/>
</linearGradient>
</defs>
</svg>
