<svg width="140" height="143" viewBox="0 0 140 143" fill="none" xmlns="http://www.w3.org/2000/svg">
<rect x="20" y="38" width="100" height="93.6364" rx="15" fill="#5BA550" fill-opacity="0.15"/>
<rect x="20" y="31.6362" width="100" height="91.8182" rx="15" fill="#5BA550" fill-opacity="0.15"/>
<g filter="url(#filter0_d)">
<rect x="20" y="23.4546" width="100" height="92.7273" rx="15" fill="#5BA550" fill-opacity="0.3"/>
</g>
<g filter="url(#filter1_d)">
<rect x="20" y="8" width="100" height="100" rx="15" fill="url(#paint0_linear)"/>
</g>
<path d="M80.8198 85.0975C84.5577 83.6195 87.9162 81.3911 90.7099 78.5974C93.5035 75.804 95.732 72.4452 97.21 68.7077C95.8649 70.027 94.2764 71.2391 92.4831 72.3203C90.841 73.31 89.0222 74.1921 87.0595 74.947C86.3046 76.9101 85.4227 78.7285 84.4328 80.3703C83.3516 82.1642 82.1394 83.7521 80.8198 85.0975ZM98.9757 59.533H90.0203C89.9011 63.6278 89.3079 67.5237 88.3296 71.0747C89.2322 70.646 90.0912 70.186 90.9021 69.6973C95.3855 66.9946 98.3544 63.4391 98.9757 59.533ZM41.2488 59.533C41.8704 63.4391 44.8393 66.9946 49.3227 69.6973C50.1336 70.186 50.9926 70.6462 51.8951 71.0747C50.9169 67.5237 50.3234 63.6278 50.2045 59.533H47H41.2488ZM55.5536 72.5584C59.39 73.8723 63.7761 74.6817 68.4631 74.8362V59.533H53.2717C53.4165 64.2635 54.2289 68.6903 55.5536 72.5584ZM71.5296 74.8434C76.3038 74.7084 80.7717 73.8942 84.6712 72.5584C85.9959 68.6903 86.808 64.2635 86.9528 59.533H71.5296V74.8434ZM98.9757 56.4665C98.3541 52.5607 95.3855 49.0049 90.9021 46.3025C90.0912 45.8138 89.2322 45.3536 88.3296 44.9249C89.3079 48.4758 89.9011 52.3718 90.0203 56.4665H92.9927H98.9757ZM84.6712 43.4411C80.7717 42.1053 76.3038 41.2912 71.5296 41.1562V56.4665H86.9528C86.808 51.7361 85.9959 47.3092 84.6712 43.4411ZM68.4631 41.1633C63.7761 41.3179 59.39 42.1272 55.5536 43.4411C54.2289 47.3092 53.4165 51.7361 53.2717 56.4665H68.4631V41.1633ZM51.8951 44.9249C50.9926 45.3536 50.1336 45.8138 49.3227 46.3025C44.8393 49.0049 41.8707 52.5607 41.2488 56.4665H47H50.2045C50.3234 52.3718 50.9169 48.4758 51.8951 44.9249ZM47.7417 72.3203C45.948 71.2391 44.3599 70.027 43.0148 68.7077C44.4928 72.4452 46.7212 75.804 49.515 78.5974C52.3083 81.3908 55.6668 83.6189 59.4038 85.0966C58.0848 83.7518 56.8729 82.1636 55.7919 80.3703C54.802 78.7285 53.9202 76.9101 53.1653 74.947C51.2022 74.1921 49.3838 73.31 47.7417 72.3203ZM43.0148 47.2918C44.3599 45.9726 45.948 44.7605 47.7417 43.6792C49.3838 42.6895 51.2022 41.8075 53.1653 41.0526C53.9202 39.0895 54.802 37.2713 55.7919 35.6292C56.8729 33.8359 58.0848 32.248 59.4038 30.903C55.6668 32.3807 52.3083 34.6087 49.515 37.4022C46.7212 40.1956 44.4928 43.5544 43.0148 47.2918ZM57.0376 39.7821C60.5547 38.8128 64.4106 38.222 68.4631 38.0951V29.1552C64.6028 29.8166 61.091 32.7711 58.415 37.2102C57.9263 38.0205 57.4664 38.8795 57.0376 39.7821ZM71.5296 38.0888C75.6666 38.1998 79.6029 38.7945 83.1872 39.7821C82.7583 38.8795 82.2984 38.0205 81.8097 37.2102C79.0804 32.6822 75.4813 29.6993 71.5296 29.1183V38.0888ZM87.0595 41.0526C89.0225 41.8075 90.841 42.6895 92.4831 43.6792C94.2764 44.7605 95.8649 45.9726 97.21 47.2918C95.732 43.5544 93.5035 40.1956 90.7099 37.4022C87.9162 34.6085 84.5577 32.3803 80.8198 30.9024C82.1394 32.2474 83.3516 33.8353 84.4328 35.6292C85.4227 37.2713 86.3046 39.0895 87.0595 41.0526ZM83.1872 76.2175C79.6029 77.205 75.6666 77.8 71.5296 77.9111V86.8812C75.4813 86.3003 79.0804 83.3173 81.8097 78.7893C82.2984 77.9791 82.7583 77.12 83.1872 76.2175ZM68.4631 77.9045C64.4106 77.7776 60.5547 77.1868 57.0376 76.2175C57.4664 77.12 57.9263 77.9791 58.415 78.7893C61.091 83.2284 64.6028 86.183 68.4631 86.8444V77.9045ZM37.9232 58.6006C37.8445 58.4162 37.8008 58.2128 37.8008 57.9999C37.8008 57.7868 37.8445 57.5834 37.9232 57.399C38.0816 48.7474 41.6524 40.9292 47.347 35.2346C53.1734 29.4085 61.2225 25.8045 70.1124 25.8045C79.0022 25.8045 87.0513 29.4085 92.8777 35.2346C98.7038 41.0606 102.308 49.1097 102.308 57.9999C102.308 66.8899 98.7038 74.9389 92.8777 80.765C87.0513 86.5914 79.0022 90.1951 70.1124 90.1951C61.2225 90.1951 53.1734 86.5914 47.347 80.765C41.6524 75.0703 38.0816 67.2521 37.9232 58.6006Z" fill="white"/>
<defs>
<filter id="filter0_d" x="0" y="9.45459" width="140" height="132.727" filterUnits="userSpaceOnUse" color-interpolation-filters="sRGB">
<feFlood flood-opacity="0" result="BackgroundImageFix"/>
<feColorMatrix in="SourceAlpha" type="matrix" values="0 0 0 0 0 0 0 0 0 0 0 0 0 0 0 0 0 0 127 0"/>
<feOffset dy="6"/>
<feGaussianBlur stdDeviation="10"/>
<feColorMatrix type="matrix" values="0 0 0 0 0.227451 0 0 0 0 0.8 0 0 0 0 0.505882 0 0 0 0.5 0"/>
<feBlend mode="normal" in2="BackgroundImageFix" result="effect1_dropShadow"/>
<feBlend mode="normal" in="SourceGraphic" in2="effect1_dropShadow" result="shape"/>
</filter>
<filter id="filter1_d" x="8" y="0" width="124" height="124" filterUnits="userSpaceOnUse" color-interpolation-filters="sRGB">
<feFlood flood-opacity="0" result="BackgroundImageFix"/>
<feColorMatrix in="SourceAlpha" type="matrix" values="0 0 0 0 0 0 0 0 0 0 0 0 0 0 0 0 0 0 127 0"/>
<feOffset dy="4"/>
<feGaussianBlur stdDeviation="6"/>
<feColorMatrix type="matrix" values="0 0 0 0 0.227451 0 0 0 0 0.8 0 0 0 0 0.505882 0 0 0 0.7 0"/>
<feBlend mode="normal" in2="BackgroundImageFix" result="effect1_dropShadow"/>
<feBlend mode="normal" in="SourceGraphic" in2="effect1_dropShadow" result="shape"/>
</filter>
<linearGradient id="paint0_linear" x1="113.333" y1="8" x2="20" y2="121.333" gradientUnits="userSpaceOnUse">
<stop stop-color="#0EB382"/>
<stop offset="1" stop-color="#73B34E"/>
</linearGradient>
</defs>
</svg>
