<svg width="181" height="51" viewBox="0 0 181 51" fill="none" xmlns="http://www.w3.org/2000/svg">
<g filter="url(#filter0_d)">
<path fill-rule="evenodd" clip-rule="evenodd" d="M25.5 4C15.835 4 8 11.835 8 21.5C8 31.165 15.835 39 25.5 39H155.5C165.165 39 173 31.165 173 21.5C173 11.835 165.165 4 155.5 4H25.5ZM85.2024 27.2397C83.1758 27.2397 81.6771 26.7705 80.7064 25.832C79.7465 24.8828 79.2665 23.3999 79.2665 21.3838C79.2665 19.4106 79.7465 17.9546 80.7064 17.0161C81.6771 16.0771 83.1758 15.6079 85.2024 15.6079C87.2291 15.6079 88.7224 16.0771 89.6825 17.0161C90.6531 17.9546 91.1384 19.4106 91.1384 21.3838C91.1384 23.3999 90.6584 24.8828 89.6985 25.832C88.7384 26.7705 87.2397 27.2397 85.2024 27.2397ZM81.9385 21.3838C81.9385 22.6641 82.1891 23.5757 82.6904 24.1201C83.1918 24.6641 84.0291 24.936 85.2024 24.936C86.3757 24.936 87.2131 24.6641 87.7145 24.1201C88.2158 23.5654 88.4664 22.6533 88.4664 21.3838C88.4664 20.1147 88.2158 19.2188 87.7145 18.6958C87.2238 18.1733 86.3865 17.9121 85.2024 17.9121C84.0184 17.9121 83.1758 18.1733 82.6744 18.6958C82.1837 19.2188 81.9385 20.1147 81.9385 21.3838ZM31.5391 27H34.2111V15.8481H31.5391V27ZM45.8536 15.8481V24.4878H45.5177L41.6777 15.8481H37.3896V27H39.9177V18.376H40.2537L44.0776 27H48.3977V15.8481H45.8536ZM59.4661 27H56.7941V15.8481H60.7781C63.8927 15.8481 65.4501 17.2026 65.4501 19.9121C65.4501 22.6748 63.8927 24.0562 60.7781 24.0562H59.4661V27ZM59.4661 18.1519V21.752H60.7781C61.4714 21.752 61.978 21.6079 62.2981 21.3198C62.618 21.0317 62.7781 20.5625 62.7781 19.9121C62.7781 19.6357 62.7462 19.3936 62.6824 19.1855C62.6033 18.9272 62.4752 18.7212 62.2981 18.5679C61.9888 18.2905 61.4821 18.1519 60.7781 18.1519H59.4661ZM77.3629 27L74.2909 23.3359C75.923 22.8237 76.7389 21.6025 76.7389 19.6719C76.7389 17.1226 75.2296 15.8481 72.2109 15.8481H68.0509V27H70.6749V23.6079H71.491L74.2589 27H77.3629ZM70.6749 18.0562H72.2109C72.8829 18.0562 73.3683 18.1841 73.667 18.4399C73.9656 18.6851 74.115 19.0957 74.115 19.6719C74.115 19.7393 74.1133 19.8047 74.1097 19.8682L74.104 19.9507L74.0974 20.02C74.0756 20.2227 74.0336 20.4023 73.9713 20.5591C73.9384 20.6421 73.8998 20.7183 73.8556 20.7881C73.8013 20.874 73.7384 20.9497 73.667 21.0161C73.3683 21.2935 72.8829 21.4321 72.2109 21.4321H70.6749V18.0562ZM99.2524 20.8721V23H102.596C102.458 24.2905 101.407 24.936 99.4445 24.936C98.2604 24.936 97.4125 24.6641 96.9004 24.1201C96.399 23.5757 96.1484 22.6587 96.1484 21.3677C96.1484 20.1304 96.4044 19.2451 96.9164 18.7119C97.4285 18.1787 98.2657 17.9121 99.4285 17.9121C99.6145 17.9121 99.7906 17.918 99.9569 17.9292C100.144 17.9419 100.319 17.9619 100.481 17.9893C100.843 18.0503 101.143 18.147 101.38 18.2798C101.828 18.5146 102.127 18.9092 102.276 19.4639L104.996 19.48C104.783 18.168 104.223 17.1973 103.316 16.5679C102.41 15.9277 101.098 15.6079 99.3805 15.6079C97.3965 15.6079 95.9138 16.0825 94.9324 17.0317C93.9618 17.9707 93.4764 19.416 93.4764 21.3677C93.4764 23.373 93.9672 24.856 94.9485 25.8159C95.9298 26.7651 97.4337 27.2397 99.4604 27.2397C101.402 27.2397 102.847 26.7651 103.796 25.8159C104.756 24.8667 105.236 23.3945 105.236 21.3999V20.8721H99.2524ZM114.374 23.3359L117.446 27H114.342L111.574 23.6079H110.758V27H108.134V15.8481H112.294C115.313 15.8481 116.822 17.1226 116.822 19.6719C116.822 21.6025 116.006 22.8237 114.374 23.3359ZM112.294 18.0562H110.758V21.4321H112.294C112.966 21.4321 113.451 21.2935 113.75 21.0161C114.049 20.7388 114.198 20.2905 114.198 19.6719C114.198 19.0957 114.049 18.6851 113.75 18.4399C113.451 18.1841 112.966 18.0562 112.294 18.0562ZM119.782 27H127.334V24.856H122.454V22.3438H126.838V20.1997H122.454V17.9917H127.27V15.8481H119.782V27ZM134.287 27.2397C131.375 27.2397 129.866 25.9277 129.759 23.3037H132.303C132.316 23.5396 132.348 23.749 132.4 23.9326C132.44 24.0703 132.491 24.1934 132.553 24.3013C132.625 24.4258 132.713 24.5308 132.815 24.6157C133.125 24.8721 133.642 25 134.367 25C135.509 25 136.079 24.5786 136.079 23.7358C136.079 23.373 136.005 23.1011 135.855 22.9199C135.825 22.8809 135.79 22.8442 135.751 22.8101C135.711 22.7749 135.666 22.7422 135.616 22.7124C135.586 22.6938 135.553 22.6763 135.519 22.6597C135.397 22.6006 135.254 22.5542 135.087 22.52L132.735 22.04C131.754 21.8374 131.055 21.5015 130.639 21.0317C130.234 20.5625 130.031 19.8745 130.031 18.9678C130.031 17.8799 130.394 17.0479 131.119 16.4717C131.845 15.896 132.906 15.6079 134.303 15.6079C136.991 15.6079 138.405 16.8081 138.543 19.208H135.999C135.946 18.6958 135.791 18.3384 135.535 18.1357C135.279 17.9331 134.847 17.832 134.239 17.832C133.205 17.832 132.687 18.1895 132.687 18.9038C132.687 19.4478 133.018 19.7837 133.679 19.9121L135.983 20.3921C136.943 20.5947 137.642 20.9624 138.079 21.4961C138.527 22.0186 138.751 22.7441 138.751 23.6719C138.751 24.8237 138.367 25.7095 137.599 26.3281C136.842 26.936 135.738 27.2397 134.287 27.2397ZM140.922 23.3037C141.029 25.9277 142.538 27.2397 145.45 27.2397C146.901 27.2397 148.005 26.936 148.762 26.3281C149.53 25.7095 149.914 24.8237 149.914 23.6719C149.914 22.7441 149.69 22.0186 149.242 21.4961C148.805 20.9624 148.106 20.5947 147.146 20.3921L144.842 19.9121C144.181 19.7837 143.85 19.4478 143.85 18.9038C143.85 18.1895 144.368 17.832 145.402 17.832C146.01 17.832 146.442 17.9331 146.698 18.1357C146.954 18.3384 147.109 18.6958 147.162 19.208H149.706C149.568 16.8081 148.154 15.6079 145.466 15.6079C144.069 15.6079 143.008 15.896 142.282 16.4717C141.557 17.0479 141.194 17.8799 141.194 18.9678C141.194 19.8745 141.397 20.5625 141.802 21.0317C142.218 21.5015 142.917 21.8374 143.898 22.04L146.25 22.52C146.334 22.5371 146.412 22.5571 146.484 22.5806C146.595 22.6167 146.692 22.6597 146.776 22.7104C146.876 22.77 146.956 22.8398 147.018 22.9199C147.085 23.0005 147.136 23.0991 147.173 23.2158C147.195 23.2856 147.212 23.3618 147.224 23.4443C147.236 23.5342 147.242 23.6313 147.242 23.7358C147.242 24.5786 146.672 25 145.53 25C144.805 25 144.288 24.8721 143.978 24.6157C143.669 24.3599 143.498 23.9224 143.466 23.3037H140.922Z" fill="#4CCC75"/>
</g>
<defs>
<filter id="filter0_d" x="0" y="0" width="181" height="51" filterUnits="userSpaceOnUse" color-interpolation-filters="sRGB">
<feFlood flood-opacity="0" result="BackgroundImageFix"/>
<feColorMatrix in="SourceAlpha" type="matrix" values="0 0 0 0 0 0 0 0 0 0 0 0 0 0 0 0 0 0 127 0"/>
<feOffset dy="4"/>
<feGaussianBlur stdDeviation="4"/>
<feColorMatrix type="matrix" values="0 0 0 0 0.176471 0 0 0 0 0.588235 0 0 0 0 0.384314 0 0 0 0.3 0"/>
<feBlend mode="normal" in2="BackgroundImageFix" result="effect1_dropShadow"/>
<feBlend mode="normal" in="SourceGraphic" in2="effect1_dropShadow" result="shape"/>
</filter>
</defs>
</svg>
