<svg width="165" height="35" viewBox="0 0 165 35" fill="none" xmlns="http://www.w3.org/2000/svg">
<path fill-rule="evenodd" clip-rule="evenodd" d="M17.5 0C7.83502 0 0 7.83502 0 17.5C0 27.165 7.83502 35 17.5 35H147.5C157.165 35 165 27.165 165 17.5C165 7.83502 157.165 0 147.5 0H17.5ZM77.2024 23.2399C75.1758 23.2399 73.6771 22.7706 72.7064 21.8319C71.7464 20.8826 71.2664 19.3999 71.2664 17.3839C71.2664 15.4106 71.7464 13.9546 72.7064 13.0159C73.6771 12.0772 75.1758 11.6079 77.2024 11.6079C79.2291 11.6079 80.7224 12.0772 81.6824 13.0159C82.6531 13.9546 83.1384 15.4106 83.1384 17.3839C83.1384 19.3999 82.6584 20.8826 81.6984 21.8319C80.7384 22.7706 79.2398 23.2399 77.2024 23.2399ZM73.9384 17.3839C73.9384 18.6639 74.1891 19.5759 74.6904 20.1199C75.1918 20.6639 76.0291 20.9359 77.2024 20.9359C78.3758 20.9359 79.2131 20.6639 79.7144 20.1199C80.2158 19.5652 80.4664 18.6532 80.4664 17.3839C80.4664 16.1146 80.2158 15.2186 79.7144 14.6959C79.2238 14.1732 78.3864 13.9119 77.2024 13.9119C76.0184 13.9119 75.1758 14.1732 74.6744 14.6959C74.1838 15.2186 73.9384 16.1146 73.9384 17.3839ZM23.5391 22.9999H26.2111V11.8479H23.5391V22.9999ZM37.8537 11.8479V20.4879H37.5177L33.6777 11.8479H29.3897V22.9999H31.9177V14.3759H32.2537L36.0777 22.9999H40.3977V11.8479H37.8537ZM51.4661 22.9999H48.7941V11.8479H52.7781C55.8927 11.8479 57.4501 13.2026 57.4501 15.9119C57.4501 18.6746 55.8927 20.0559 52.7781 20.0559H51.4661V22.9999ZM51.4661 14.1519V17.7519H52.7781C53.4714 17.7519 53.9781 17.6079 54.2981 17.3199C54.6181 17.0319 54.7781 16.5626 54.7781 15.9119C54.7781 15.2932 54.6181 14.8452 54.2981 14.5679C53.9887 14.2906 53.4821 14.1519 52.7781 14.1519H51.4661ZM69.3629 22.9999L66.2909 19.3359C67.9229 18.8239 68.7389 17.6026 68.7389 15.6719C68.7389 13.1226 67.2296 11.8479 64.2109 11.8479H60.0509V22.9999H62.6749V19.6079H63.4909L66.2589 22.9999H69.3629ZM62.6749 14.0559H64.2109C64.8829 14.0559 65.3683 14.1839 65.6669 14.4399C65.9656 14.6852 66.1149 15.0959 66.1149 15.6719C66.1149 16.2906 65.9656 16.7386 65.6669 17.0159C65.3683 17.2932 64.8829 17.4319 64.2109 17.4319H62.6749V14.0559ZM91.2524 16.8719V18.9999H94.5964C94.4578 20.2906 93.4071 20.9359 91.4444 20.9359C90.2604 20.9359 89.4124 20.6639 88.9004 20.1199C88.3991 19.5759 88.1484 18.6586 88.1484 17.3679C88.1484 16.1306 88.4044 15.2452 88.9164 14.7119C89.4284 14.1786 90.2658 13.9119 91.4284 13.9119C92.2924 13.9119 92.9431 14.0346 93.3804 14.2799C93.8284 14.5146 94.1271 14.9092 94.2764 15.4639L96.9964 15.4799C96.7831 14.1679 96.2231 13.1972 95.3164 12.5679C94.4098 11.9279 93.0978 11.6079 91.3804 11.6079C89.3964 11.6079 87.9138 12.0826 86.9324 13.0319C85.9618 13.9706 85.4764 15.4159 85.4764 17.3679C85.4764 19.3732 85.9671 20.8559 86.9484 21.8159C87.9298 22.7652 89.4338 23.2399 91.4604 23.2399C93.4018 23.2399 94.8471 22.7652 95.7964 21.8159C96.7564 20.8666 97.2364 19.3946 97.2364 17.3999V16.8719H91.2524ZM106.374 19.3359L109.446 22.9999H106.342L103.574 19.6079H102.758V22.9999H100.134V11.8479H104.294C107.313 11.8479 108.822 13.1226 108.822 15.6719C108.822 17.6026 108.006 18.8239 106.374 19.3359ZM104.294 14.0559H102.758V17.4319H104.294C104.966 17.4319 105.451 17.2932 105.75 17.0159C106.049 16.7386 106.198 16.2906 106.198 15.6719C106.198 15.0959 106.049 14.6852 105.75 14.4399C105.451 14.1839 104.966 14.0559 104.294 14.0559ZM111.782 22.9999H119.334V20.8559H114.454V18.3439H118.838V16.1999H114.454V13.9919H119.27V11.8479H111.782V22.9999ZM126.287 23.2399C123.375 23.2399 121.866 21.9279 121.759 19.3039H124.303C124.335 19.9226 124.506 20.3599 124.815 20.6159C125.125 20.8719 125.642 20.9999 126.367 20.9999C127.509 20.9999 128.079 20.5786 128.079 19.7359C128.079 19.3732 128.005 19.1012 127.855 18.9199C127.706 18.7279 127.45 18.5946 127.087 18.5199L124.735 18.0399C123.754 17.8372 123.055 17.5012 122.639 17.0319C122.234 16.5626 122.031 15.8746 122.031 14.9679C122.031 13.8799 122.394 13.0479 123.119 12.4719C123.845 11.8959 124.906 11.6079 126.303 11.6079C128.991 11.6079 130.405 12.8079 130.543 15.2079H127.999C127.946 14.6959 127.791 14.3386 127.535 14.1359C127.279 13.9332 126.847 13.8319 126.239 13.8319C125.205 13.8319 124.687 14.1892 124.687 14.9039C124.687 15.4479 125.018 15.7839 125.679 15.9119L127.983 16.3919C128.943 16.5946 129.642 16.9626 130.079 17.4959C130.527 18.0186 130.751 18.7439 130.751 19.6719C130.751 20.8239 130.367 21.7092 129.599 22.3279C128.842 22.9359 127.738 23.2399 126.287 23.2399ZM132.922 19.3039C133.029 21.9279 134.538 23.2399 137.45 23.2399C138.901 23.2399 140.005 22.9359 140.762 22.3279C141.53 21.7092 141.914 20.8239 141.914 19.6719C141.914 18.7439 141.69 18.0186 141.242 17.4959C140.805 16.9626 140.106 16.5946 139.146 16.3919L136.842 15.9119C136.181 15.7839 135.85 15.4479 135.85 14.9039C135.85 14.1892 136.368 13.8319 137.402 13.8319C138.01 13.8319 138.442 13.9332 138.698 14.1359C138.954 14.3386 139.109 14.6959 139.162 15.2079H141.706C141.568 12.8079 140.154 11.6079 137.466 11.6079C136.069 11.6079 135.008 11.8959 134.282 12.4719C133.557 13.0479 133.194 13.8799 133.194 14.9679C133.194 15.8746 133.397 16.5626 133.802 17.0319C134.218 17.5012 134.917 17.8372 135.898 18.0399L138.25 18.5199C138.613 18.5946 138.869 18.7279 139.018 18.9199C139.168 19.1012 139.242 19.3732 139.242 19.7359C139.242 20.5786 138.672 20.9999 137.53 20.9999C136.805 20.9999 136.288 20.8719 135.978 20.6159C135.669 20.3599 135.498 19.9226 135.466 19.3039H132.922Z" fill="#4CCC75"/>
</svg>
